<?xml version="1.0" encoding="UTF-8" standalone="no"?>
<svg
   viewBox="-960 -481.5 1000 800"
   width="1000"
   height="800"
   version="1.1"
   id="svg294"
   sodipodi:docname="nn.svg"
   inkscape:version="1.1 (c4e8f9ed74, 2021-05-24)"
   xmlns:inkscape="http://www.inkscape.org/namespaces/inkscape"
   xmlns:sodipodi="http://sodipodi.sourceforge.net/DTD/sodipodi-0.dtd"
   xmlns="http://www.w3.org/2000/svg"
   xmlns:svg="http://www.w3.org/2000/svg"
   xmlns:ns17="http://www.iki.fi/pav/software/textext/">
  <defs
     id="defs298">
    <linearGradient
       id="linearGradient4805"
       inkscape:swatch="solid">
      <stop
         style="stop-color:#000000;stop-opacity:1;"
         offset="0"
         id="stop4803" />
    </linearGradient>
    <filter
       inkscape:collect="always"
       style="color-interpolation-filters:sRGB"
       id="filter1332"
       x="-0.025214882"
       y="-0.022638254"
       width="1.0504298"
       height="1.0452765">
      <feGaussianBlur
         inkscape:collect="always"
         stdDeviation="2.1993594"
         id="feGaussianBlur1334" />
    </filter>
    <filter
       inkscape:collect="always"
       style="color-interpolation-filters:sRGB"
       id="filter1336"
       x="-0.021048764"
       y="-0.026648697"
       width="1.0420975"
       height="1.0532974">
      <feGaussianBlur
         inkscape:collect="always"
         stdDeviation="3.3645268"
         id="feGaussianBlur1338" />
    </filter>
    <filter
       inkscape:collect="always"
       style="color-interpolation-filters:sRGB"
       id="filter5189"
       x="-0.11847329"
       y="-0.042393865"
       width="1.2369466"
       height="1.0847877">
      <feGaussianBlur
         inkscape:collect="always"
         stdDeviation="3.9836984"
         id="feGaussianBlur5191" />
    </filter>
  </defs>
  <sodipodi:namedview
     id="namedview296"
     pagecolor="#ffffff"
     bordercolor="#666666"
     borderopacity="1.0"
     inkscape:pageshadow="2"
     inkscape:pageopacity="0.0"
     inkscape:pagecheckerboard="0"
     showgrid="false"
     inkscape:zoom="0.39602039"
     inkscape:cx="837.07811"
     inkscape:cy="532.80085"
     inkscape:window-width="1920"
     inkscape:window-height="1011"
     inkscape:window-x="0"
     inkscape:window-y="32"
     inkscape:window-maximized="1"
     inkscape:current-layer="svg294"
     width="1919px" />
  <rect
     style="mix-blend-mode:normal;fill:#442178;fill-opacity:0.295257;fill-rule:evenodd;stroke-width:2.3873;filter:url(#filter1332)"
     id="rect345"
     width="209.33917"
     height="233.16562"
     x="212.29071"
     y="-80.934456"
     ry="81.828888"
     transform="matrix(1.1737666,0,0,1.1737666,-628.82441,-127.85584)" />
  <rect
     style="fill:#f6ffa8;fill-opacity:0.354409;fill-rule:evenodd;stroke-width:2.7;filter:url(#filter1336)"
     id="rect341"
     width="383.62653"
     height="303.0116"
     x="-171.33582"
     y="-150.78043"
     ry="151.5058"
     transform="matrix(1.1737666,0,0,1.1737666,-628.82441,-127.85584)" />
  <path
     d="m -711.89383,-101.5594 -26.17186,-3.42097 m 0,-130.62406 v 130.62406 m 0,0 -46.17595,50.279143 m 72.34781,-177.482233 v 130.62406 m 0,0 -46.17595,50.279142"
     style="fill:none;stroke:#000000;stroke-width:1.17377;stroke-linecap:round"
     id="path2" />
  <path
     d="m -711.89383,-101.5594 -26.17186,-3.42097 v -130.62406 z"
     style="fill:#eeeeee;fill-opacity:0.4;stroke-width:1.17377"
     id="path4" />
  <path
     d="m -606.1546,-95.430553 -66.05042,-8.633567 m 0,-103.57958 v 103.57958 m 0,0 -36.61566,39.869326"
     style="fill:none;stroke:#000000;stroke-width:1.17377;stroke-linecap:round"
     id="path6" />
  <path
     d="m -711.89383,-232.18346 v 130.62406 l -26.17186,-134.04503 z m -72.34781,177.482233 46.17595,-50.279143 26.17186,3.42097 z"
     style="fill:#eeeeee;fill-opacity:0.4;stroke-width:1.17377"
     id="path8" />
  <path
     d="m -711.89383,-232.18346 -26.17186,-3.42097 m 0,0 -46.17595,50.27914 m 72.34781,-46.85817 -46.17595,50.27914"
     style="fill:none;stroke:#000000;stroke-width:1.17377;stroke-linecap:round"
     id="path10" />
  <path
     d="m -606.1546,-95.430553 -66.05042,-8.633567 V -207.6437 Z"
     style="fill:#eeeeee;fill-opacity:0.4;stroke-width:1.17377"
     id="path12" />
  <path
     d="m -606.1546,-199.01013 v 103.579577 m 0,0 -36.61566,39.869324"
     style="fill:none;stroke:#000000;stroke-width:1.17377;stroke-linecap:round"
     id="path14" />
  <path
     d="m -758.06978,-51.280258 46.17595,-50.279142 v -130.62406 z m 20.00409,-184.324172 v 130.62406 l -46.17595,-80.34492 z m 29.24501,171.409636 36.61566,-39.869326 66.05042,8.633567 z"
     style="fill:#eeeeee;fill-opacity:0.4;stroke-width:1.17377"
     id="path16" />
  <path
     d="m -606.1546,-199.01013 -66.05042,-8.63357 m 0,0 -36.61566,39.86932"
     style="fill:none;stroke:#000000;stroke-width:1.17377;stroke-linecap:round"
     id="path18" />
  <path
     d="M -606.1546,-199.01013 V -95.430553 L -672.20502,-207.6437 Z"
     style="fill:#eeeeee;fill-opacity:0.4;stroke-width:1.17377"
     id="path20" />
  <path
     d="m -728.42024,-189.57161 -26.17186,-3.42097 m 0,-7.78301 v 7.78301 m 0,0 -2.75131,2.9958"
     style="fill:none;stroke:#000000;stroke-width:1.17377;stroke-linecap:round"
     id="path22" />
  <path
     d="m -758.06978,-51.280258 -26.17186,-3.420969 72.34781,-46.858173 z"
     style="fill:#eeeeee;fill-opacity:0.4;stroke-width:1.17377"
     id="path24" />
  <path
     d="m -728.42024,-197.35462 -26.17186,-3.42097 m 0,0 -2.75131,2.9958"
     style="fill:none;stroke:#000000;stroke-width:1.17377;stroke-linecap:round"
     id="path26" />
  <path
     d="m -728.42024,-189.57161 -26.17186,-3.42097 v -7.78301 z m -26.17186,-11.20398 v 7.78301 l -2.75131,-4.78721 z m -2.75131,10.77881 2.75131,-2.9958 26.17186,3.42097 z m 2.75131,-2.9958 -2.75131,2.9958 v -7.78301 z"
     style="fill:#99ddff;fill-opacity:0.4;stroke-width:1.17377"
     id="path28" />
  <path
     d="m -757.34341,-197.77979 v 7.78301 m 0,0 26.17186,3.42097"
     style="fill:none;stroke:#000000;stroke-width:1.17377;stroke-linecap:round"
     id="path30" />
  <path
     d="m -728.42024,-197.35462 v 7.78301 l -26.17186,-11.20398 z"
     style="fill:#99ddff;fill-opacity:0.4;stroke-width:1.17377"
     id="path32" />
  <path
     d="m -728.42024,-197.35462 v 7.78301 m 0,0 -2.75131,2.9958 m 2.75131,-10.77881 v 7.78301 m 0,0 -2.75131,2.9958 m 2.75131,-2.9958 42.0196,13.81935 m 185.30672,85.269921 -66.05041,-8.633565 m 0,-72.696156 v 72.696156 m 0,0 -25.69829,27.981836"
     style="fill:none;stroke:#000000;stroke-width:1.17377;stroke-linecap:round"
     id="path34" />
  <path
     d="m -731.17155,-186.57581 -26.17186,-3.42097 28.92317,0.42517 z"
     style="fill:#99ddff;fill-opacity:0.4;stroke-width:1.17377"
     id="path36" />
  <path
     d="m -757.34341,-197.77979 26.17186,3.42097"
     style="fill:none;stroke:#000000;stroke-width:1.17377;stroke-linecap:round"
     id="path38" />
  <path
     d="m -757.34341,-197.77979 26.17186,3.42097 -23.42055,-6.41677 z m 26.17186,3.42097 2.75131,-2.9958 -26.17186,-3.42097 z"
     style="fill:#99ddff;fill-opacity:0.4;stroke-width:1.17377"
     id="path40" />
  <path
     d="m -728.42024,-197.35462 -2.75131,2.9958 m 2.75131,-2.9958 -2.75131,2.9958 m 2.75131,-2.9958 42.0196,21.60236"
     style="fill:none;stroke:#000000;stroke-width:1.17377;stroke-linecap:round"
     id="path42" />
  <path
     d="m -728.42024,-197.35462 v 7.78301 l -2.75131,2.9958 z"
     style="fill:#ffbbbb;fill-opacity:0.4;stroke-width:1.17377"
     id="path44" />
  <path
     d="m -731.17155,-186.57581 2.75131,-2.9958 v -7.78301 z m -26.17186,-11.20398 v 7.78301 l 26.17186,-4.36204 z"
     style="fill:#99ddff;fill-opacity:0.4;stroke-width:1.17377"
     id="path46" />
  <path
     d="m -758.06978,-181.90432 46.17595,-50.27914 -26.17186,-3.42097 z m 20.00409,76.92395 -46.17595,50.279143 V -185.32529 Z"
     style="fill:#eeeeee;fill-opacity:0.4;stroke-width:1.17377"
     id="path48" />
  <path
     d="m -757.34341,-189.99678 26.17186,3.42097 v -7.78301 z"
     style="fill:#99ddff;fill-opacity:0.4;stroke-width:1.17377"
     id="path50" />
  <path
     d="m -672.20502,-207.6437 v 103.57958 l -36.61566,-63.71025 z"
     style="fill:#eeeeee;fill-opacity:0.4;stroke-width:1.17377"
     id="path52" />
  <path
     d="m -728.42024,-197.35462 -2.75131,10.77881 v -7.78301 z"
     style="fill:#ffbbbb;fill-opacity:0.4;stroke-width:1.17377"
     id="path54" />
  <path
     d="m -731.17155,-194.35882 v 7.78301 l 2.75131,-10.77881 z"
     style="fill:#99ddff;fill-opacity:0.4;stroke-width:1.17377"
     id="path56" />
  <path
     d="m -728.42024,-189.57161 v -7.78301 l 42.0196,21.60236 z"
     style="fill:#ffbbbb;fill-opacity:0.4;stroke-width:1.17377"
     id="path58" />
  <path
     d="m -731.17155,-194.35882 v 7.78301 m 0,0 v -7.78301 m 0,7.78301 44.77091,10.82355 m 68.07398,18.89554 -66.05041,-8.63356 m 0,-7.78301 v 7.78301 m 0,0 -2.75132,2.99579 m 80.97379,-36.51564 -36.61566,39.86932"
     style="fill:none;stroke:#000000;stroke-width:1.17377;stroke-linecap:round"
     id="path60" />
  <path
     d="m -731.17155,-186.57581 2.75131,-2.9958 42.0196,13.81935 z"
     style="fill:#ffbbbb;fill-opacity:0.4;stroke-width:1.17377"
     id="path62" />
  <path
     d="m -731.17155,-194.35882 44.77091,18.60656"
     style="fill:none;stroke:#000000;stroke-width:1.17377;stroke-linecap:round"
     id="path64" />
  <path
     d="m -728.42024,-197.35462 -2.75131,2.9958 44.77091,18.60656 z"
     style="fill:#ffbbbb;fill-opacity:0.4;stroke-width:1.17377"
     id="path66" />
  <path
     d="m -618.32666,-164.63973 -66.05041,-8.63356 m 0,0 -2.75132,2.99579"
     style="fill:none;stroke:#000000;stroke-width:1.17377;stroke-linecap:round"
     id="path68" />
  <path
     d="m -731.17155,-194.35882 v 7.78301 l 44.77091,10.82355 z"
     style="fill:#ffbbbb;fill-opacity:0.4;stroke-width:1.17377"
     id="path70" />
  <path
     d="m -684.37707,-173.27329 v 7.78301 l -2.75132,-4.78722 z"
     style="fill:#99ddff;fill-opacity:0.4;stroke-width:1.17377"
     id="path72" />
  <path
     d="m -642.77026,-55.561229 36.61566,-39.869324 V -199.01013 Z"
     style="fill:#eeeeee;fill-opacity:0.4;stroke-width:1.17377"
     id="path74" />
  <path
     d="m -684.37707,-165.49028 -2.75132,2.99579 v -7.78301 z"
     style="fill:#99ddff;fill-opacity:0.4;stroke-width:1.17377"
     id="path76" />
  <path
     d="m -687.12839,-170.2775 v 7.78301 m 0,0 66.05042,8.63357"
     style="fill:none;stroke:#000000;stroke-width:1.17377;stroke-linecap:round"
     id="path78" />
  <path
     d="m -618.32666,-156.85672 -66.05041,-8.63356 v -7.78301 z m -68.80173,-5.63777 2.75132,-2.99579 66.05041,8.63356 z"
     style="fill:#99ddff;fill-opacity:0.4;stroke-width:1.17377"
     id="path80" />
  <path
     d="m -501.09392,-90.482339 -66.05041,-8.633565 v -72.696166 z"
     style="fill:#eeeeee;fill-opacity:0.4;stroke-width:1.17377"
     id="path82" />
  <path
     d="m -687.12839,-170.2775 66.05042,8.63357 m 119.98405,-1.53457 v 72.696161 m 0,0 -25.69828,27.981836"
     style="fill:none;stroke:#000000;stroke-width:1.17377;stroke-linecap:round"
     id="path84" />
  <path
     d="m -687.12839,-170.2775 66.05042,8.63357 -63.2991,-11.62936 z m 68.80173,5.63777 v 7.78301 l -66.05041,-16.41657 z"
     style="fill:#99ddff;fill-opacity:0.4;stroke-width:1.17377"
     id="path86" />
  <path
     d="m -672.20502,-104.06412 -36.61566,39.869326 V -167.77438 Z m 29.43476,48.502891 -66.05042,-8.633565 102.66608,-31.235759 z"
     style="fill:#eeeeee;fill-opacity:0.4;stroke-width:1.17377"
     id="path88" />
  <path
     d="m -687.12839,-170.2775 v 7.78301 l 66.05042,0.85056 z m 66.05042,16.41658 -66.05042,-8.63357 68.80173,5.63777 z"
     style="fill:#99ddff;fill-opacity:0.4;stroke-width:1.17377"
     id="path90" />
  <path
     d="m -784.24164,-185.32529 v 130.624063 m 0,0 26.17186,3.420969"
     style="fill:none;stroke:#000000;stroke-width:1.17377;stroke-linecap:round"
     id="path92" />
  <path
     d="m -621.07797,-161.64393 2.75131,-2.9958 -66.05041,-8.63356 z"
     style="fill:#99ddff;fill-opacity:0.4;stroke-width:1.17377"
     id="path94" />
  <path
     d="m -618.32666,-164.63973 v 7.78301 m 0,0 -2.75131,2.9958 m 2.75132,-10.77881 v 7.78301 m 0,0 -2.75132,2.9958 m 2.75132,-2.9958 41.67401,12.94963"
     style="fill:none;stroke:#000000;stroke-width:1.17377;stroke-linecap:round"
     id="path96" />
  <path
     d="m -758.06978,-181.90432 v 130.624062 l 46.17595,-180.903202 z"
     style="fill:#eeeeee;fill-opacity:0.4;stroke-width:1.17377"
     id="path98" />
  <path
     d="m -687.12839,-162.49449 66.05042,8.63357 v -7.78301 z"
     style="fill:#99ddff;fill-opacity:0.4;stroke-width:1.17377"
     id="path100" />
  <path
     d="m -501.09392,-163.1785 -66.05041,-8.63357 m 0,0 -25.69829,27.98184"
     style="fill:none;stroke:#000000;stroke-width:1.17377;stroke-linecap:round"
     id="path102" />
  <path
     d="m -592.84262,-71.134068 25.69829,-27.981836 66.05041,8.633565 z"
     style="fill:#eeeeee;fill-opacity:0.4;stroke-width:1.17377"
     id="path104" />
  <path
     d="m -618.32666,-164.63973 -2.75131,2.9958 m 2.75132,-2.9958 -2.75132,2.9958 m 2.75132,-2.9958 41.67401,20.73264"
     style="fill:none;stroke:#000000;stroke-width:1.17377;stroke-linecap:round"
     id="path106" />
  <path
     d="m -621.07797,-153.86092 2.75131,-2.9958 v -7.78301 z"
     style="fill:#99ddff;fill-opacity:0.4;stroke-width:1.17377"
     id="path108" />
  <path
     d="m -618.32666,-164.63973 v 7.78301 l -2.75131,2.9958 z"
     style="fill:#ffbbbb;fill-opacity:0.4;stroke-width:1.17377"
     id="path110" />
  <path
     d="m -642.77026,-159.14081 36.61566,-39.86932 -66.05042,-8.63357 z m 141.67634,-4.03769 v 72.696161 l -66.05041,-81.329721 z"
     style="fill:#eeeeee;fill-opacity:0.4;stroke-width:1.17377"
     id="path112" />
  <path
     d="m -509.34143,-111.10613 -66.05042,-8.63356 m 0,-6.22641 v 6.22641 m 0,0 -2.20105,2.39663 m -180.47688,-64.56126 v 130.624062"
     style="fill:none;stroke:#000000;stroke-width:1.17377;stroke-linecap:round"
     id="path114" />
  <path
     d="m -621.07797,-161.64393 v 7.78301 l 2.75131,-10.77881 z"
     style="fill:#99ddff;fill-opacity:0.4;stroke-width:1.17377"
     id="path116" />
  <path
     d="m -618.32666,-164.63973 -2.75131,10.77881 v -7.78301 z"
     style="fill:#ffbbbb;fill-opacity:0.4;stroke-width:1.17377"
     id="path118" />
  <path
     d="m -621.07797,-161.64393 v 7.78301 m 0,0 v -7.78301 m 0,7.78301 44.42533,9.95383"
     style="fill:none;stroke:#000000;stroke-width:1.17377;stroke-linecap:round"
     id="path120" />
  <path
     d="m -618.32666,-156.85672 v -7.78301 l 41.67402,20.73264 z"
     style="fill:#ffbbbb;fill-opacity:0.4;stroke-width:1.17377"
     id="path122" />
  <path
     d="m -509.34143,-117.33253 -66.05042,-8.63357 m 0,0 -2.20105,2.39664"
     style="fill:none;stroke:#000000;stroke-width:1.17377;stroke-linecap:round"
     id="path124" />
  <path
     d="m -621.07797,-153.86092 2.75132,-2.9958 41.67401,12.94963 z"
     style="fill:#ffbbbb;fill-opacity:0.4;stroke-width:1.17377"
     id="path126" />
  <path
     d="m -575.39185,-125.9661 v 6.22641 l -2.20105,-3.82977 z"
     style="fill:#99ddff;fill-opacity:0.4;stroke-width:1.17377"
     id="path128" />
  <path
     d="m -621.07797,-161.64393 44.42533,17.73684"
     style="fill:none;stroke:#000000;stroke-width:1.17377;stroke-linecap:round"
     id="path130" />
  <path
     d="m -575.39185,-119.73969 -2.20105,2.39663 v -6.2264 z"
     style="fill:#99ddff;fill-opacity:0.4;stroke-width:1.17377"
     id="path132" />
  <path
     d="m -618.32666,-164.63973 -2.75131,2.9958 44.42533,17.73684 z"
     style="fill:#ffbbbb;fill-opacity:0.4;stroke-width:1.17377"
     id="path134" />
  <path
     d="m -577.5929,-123.56946 v 6.2264 m 0,0 66.05042,8.63357"
     style="fill:none;stroke:#000000;stroke-width:1.17377;stroke-linecap:round"
     id="path136" />
  <path
     d="m -621.07797,-161.64393 v 7.78301 l 44.42533,9.95383 z"
     style="fill:#ffbbbb;fill-opacity:0.4;stroke-width:1.17377"
     id="path138" />
  <path
     d="m -784.24164,-185.32529 26.17186,3.42097 20.00409,-53.70011 z"
     style="fill:#eeeeee;fill-opacity:0.4;stroke-width:1.17377"
     id="path140" />
  <path
     d="m -708.82068,-167.77438 v 103.579586 m 0,0 66.05042,8.633565"
     style="fill:none;stroke:#000000;stroke-width:1.17377;stroke-linecap:round"
     id="path142" />
  <path
     d="m -509.34143,-111.10613 -66.05042,-8.63356 v -6.22641 z"
     style="fill:#99ddff;fill-opacity:0.4;stroke-width:1.17377"
     id="path144" />
  <path
     d="m -577.5929,-123.56946 66.05042,8.63356"
     style="fill:none;stroke:#000000;stroke-width:1.17377;stroke-linecap:round"
     id="path146" />
  <path
     d="m -567.14433,-171.81207 v 72.696166 l -25.69829,-44.714326 z"
     style="fill:#eeeeee;fill-opacity:0.4;stroke-width:1.17377"
     id="path148" />
  <path
     d="m -577.5929,-117.34306 2.20105,-2.39663 66.05042,8.63356 z m 0,-6.2264 66.05042,8.63356 -63.84937,-11.0302 z m 0,0 v 6.2264 l 66.05042,2.40716 z"
     style="fill:#99ddff;fill-opacity:0.4;stroke-width:1.17377"
     id="path150" />
  <path
     d="m -784.24164,-54.701227 26.17186,3.420969 V -181.90432 Z"
     style="fill:#eeeeee;fill-opacity:0.4;stroke-width:1.17377"
     id="path152" />
  <path
     d="m -509.34143,-117.33253 v 6.2264 l -66.05042,-14.85997 z"
     style="fill:#99ddff;fill-opacity:0.4;stroke-width:1.17377"
     id="path154" />
  <path
     d="m -501.09392,-163.1785 -25.69828,27.98184"
     style="fill:none;stroke:#000000;stroke-width:1.17377;stroke-linecap:round"
     id="path156" />
  <path
     d="m -511.54248,-108.70949 -66.05042,-8.63357 68.25147,6.23693 z m 0,-6.22641 2.20105,-2.39663 -66.05042,-8.63357 z"
     style="fill:#99ddff;fill-opacity:0.4;stroke-width:1.17377"
     id="path158" />
  <path
     d="m -526.7922,-62.500503 25.69828,-27.981836 V -163.1785 Z"
     style="fill:#eeeeee;fill-opacity:0.4;stroke-width:1.17377"
     id="path160" />
  <path
     d="m -577.5929,-117.34306 66.05042,8.63357 v -6.22641 z"
     style="fill:#99ddff;fill-opacity:0.4;stroke-width:1.17377"
     id="path162" />
  <path
     d="m -509.34143,-117.33253 v 6.2264 m 0,0 -2.20105,2.39664 m 2.20106,-8.62304 v 6.2264 m 0,0 -2.20105,2.39664 m 2.20105,-2.39664 41.11444,4.01459"
     style="fill:none;stroke:#000000;stroke-width:1.17377;stroke-linecap:round"
     id="path164" />
  <path
     d="m -567.14433,-99.115904 -25.69829,27.981836 v -72.696162 z"
     style="fill:#eeeeee;fill-opacity:0.4;stroke-width:1.17377"
     id="path166" />
  <path
     d="m -509.34143,-117.33253 -2.20105,2.39663 m 2.20106,-2.39663 -2.20105,2.39663 m 2.20105,-2.39663 41.11444,10.24099"
     style="fill:none;stroke:#000000;stroke-width:1.17377;stroke-linecap:round"
     id="path168" />
  <path
     d="m -511.54248,-108.70949 2.20105,-2.39664 v -6.2264 z"
     style="fill:#99ddff;fill-opacity:0.4;stroke-width:1.17377"
     id="path170" />
  <path
     d="m -509.34143,-117.33253 v 6.2264 l -2.20105,2.39664 z"
     style="fill:#ffbbbb;fill-opacity:0.4;stroke-width:1.17377"
     id="path172" />
  <path
     d="m -708.82068,-167.77438 66.05042,8.63357 -29.43476,-48.50289 z m 66.05042,8.63357 v 103.579581 l 36.61566,-143.448901 z m 115.97806,96.640307 -66.05042,-8.633565 91.7487,-19.348271 z"
     style="fill:#eeeeee;fill-opacity:0.4;stroke-width:1.17377"
     id="path174" />
  <path
     d="m -511.54248,-114.9359 v 6.22641 l 2.20105,-8.62304 z"
     style="fill:#99ddff;fill-opacity:0.4;stroke-width:1.17377"
     id="path176" />
  <path
     d="m -509.34143,-117.33253 -2.20105,8.62304 v -6.22641 z"
     style="fill:#ffbbbb;fill-opacity:0.4;stroke-width:1.17377"
     id="path178" />
  <path
     d="m -511.54248,-114.9359 v 6.22641 m 1e-5,0 v -6.22641 m 0,6.22641 43.31549,1.61795 m -174.54328,-52.04927 v 103.579581 m 131.22779,-59.374671 43.31549,7.84436"
     style="fill:none;stroke:#000000;stroke-width:1.17377;stroke-linecap:round"
     id="path180" />
  <path
     d="m -784.24164,-185.32529 v 130.624063 l 26.17186,-127.203093 z"
     style="fill:#eeeeee;fill-opacity:0.4;stroke-width:1.17377"
     id="path182" />
  <path
     d="m -509.34143,-111.10613 v -6.2264 l 41.11444,10.24099 z m -2.20105,2.39664 2.20105,-2.39664 41.11444,4.01459 z"
     style="fill:#ffbbbb;fill-opacity:0.4;stroke-width:1.17377"
     id="path184" />
  <path
     d="m -526.7922,-135.19666 25.69828,-27.98184 -66.05041,-8.63357 z"
     style="fill:#eeeeee;fill-opacity:0.4;stroke-width:1.17377"
     id="path186" />
  <path
     d="m -398.84673,-90.429539 -66.05042,-8.633565 m 0,-25.894896 v 25.894896 m 0,0 -9.15391,9.967331"
     style="fill:none;stroke:#000000;stroke-width:1.17377;stroke-linecap:round"
     id="path188" />
  <path
     d="m -509.34143,-117.33253 -2.20105,2.39663 43.31549,7.84436 z m -2.20105,2.39663 v 6.22641 l 43.31549,1.61795 z"
     style="fill:#ffbbbb;fill-opacity:0.4;stroke-width:1.17377"
     id="path190" />
  <path
     d="m -592.84262,-143.83023 v 72.696162 m 0,0 66.05042,8.633565"
     style="fill:none;stroke:#000000;stroke-width:1.17377;stroke-linecap:round"
     id="path192" />
  <path
     d="m -708.82068,-64.194794 66.05042,8.633565 V -159.14081 Z m 0,-103.579586 v 103.579586 l 66.05042,-94.946016 z"
     style="fill:#eeeeee;fill-opacity:0.4;stroke-width:1.17377"
     id="path194" />
  <path
     d="m -398.84673,-116.32443 -66.05042,-8.63357 m 0,0 -9.15391,9.96733"
     style="fill:none;stroke:#000000;stroke-width:1.17377;stroke-linecap:round"
     id="path196" />
  <path
     d="m -398.84673,-90.429539 -66.05042,-8.633565 V -124.958 Z"
     style="fill:#eeeeee;fill-opacity:0.4;stroke-width:1.17377"
     id="path198" />
  <path
     d="m -314.74752,-11.739567 -26.42017,-3.453427 m 0,-161.289326 v 161.289326 m 0,0 -9.15392,9.967332 m -433.92003,-180.099628 26.17186,3.42097"
     style="fill:none;stroke:#000000;stroke-width:1.17377;stroke-linecap:round"
     id="path200" />
  <path
     d="m -464.89715,-124.958 v 25.894896 l -9.15391,-15.927566 z m -9.15391,35.862227 9.15391,-9.967331 66.05042,8.633565 z m -118.79156,-54.734457 66.05042,8.63357 -40.35213,-36.6154 z"
     style="fill:#eeeeee;fill-opacity:0.4;stroke-width:1.17377"
     id="path202" />
  <path
     d="m -708.82068,-167.77438 66.05042,8.63357"
     style="fill:none;stroke:#000000;stroke-width:1.17377;stroke-linecap:round"
     id="path204" />
  <path
     d="m -526.7922,-135.19666 v 72.696157 l 25.69828,-100.677997 z m 61.89505,36.133556 -9.15391,9.967331 v -25.894897 z"
     style="fill:#eeeeee;fill-opacity:0.4;stroke-width:1.17377"
     id="path206" />
  <path
     d="m -314.74752,-173.0289 v 161.289333 m 0,0 -9.15392,9.967331"
     style="fill:none;stroke:#000000;stroke-width:1.17377;stroke-linecap:round"
     id="path208" />
  <path
     d="m -398.84673,-116.32443 v 25.894891 L -464.89715,-124.958 Z"
     style="fill:#eeeeee;fill-opacity:0.4;stroke-width:1.17377"
     id="path210" />
  <path
     d="m -398.84673,-116.32443 v 25.894891 m 0,0 -9.15391,9.967331 M -526.7922,-135.19666 v 72.696157"
     style="fill:none;stroke:#000000;stroke-width:1.17377;stroke-linecap:round"
     id="path212" />
  <path
     d="m -350.32161,-5.225662 9.15392,-9.967332 26.42017,3.453427 z"
     style="fill:#eeeeee;fill-opacity:0.4;stroke-width:1.17377"
     id="path214" />
  <path
     d="m -474.05106,-114.99067 v 25.894897 m 0,0 66.05042,8.633565"
     style="fill:none;stroke:#000000;stroke-width:1.17377;stroke-linecap:round"
     id="path216" />
  <path
     d="m -592.84262,-71.134068 66.05042,8.633565 v -72.696157 z m 0,-72.696162 v 72.696162 l 66.05042,-64.062592 z m 184.84198,63.368022 -66.05042,-8.633565 75.20433,-1.333766 z"
     style="fill:#eeeeee;fill-opacity:0.4;stroke-width:1.17377"
     id="path218" />
  <path
     d="m -592.84262,-143.83023 66.05042,8.63357 M -243.8584,5.89551 -270.27857,2.44208 m 0,-178.0274 V 2.44208 m 0,0 -9.15392,9.96734 m -119.41424,-128.73385 -9.15391,9.96733"
     style="fill:none;stroke:#000000;stroke-width:1.17377;stroke-linecap:round"
     id="path220" />
  <path
     d="m -408.00064,-106.3571 9.15391,-9.96733 -66.05042,-8.63357 z m 0,25.894892 9.15391,-9.967331 v -25.894891 z m -66.05042,-34.528462 66.05042,8.63357 -56.89651,-18.6009 z m 150.14962,113.218434 -26.42017,-3.453426 35.57409,-6.513905 z"
     style="fill:#eeeeee;fill-opacity:0.4;stroke-width:1.17377"
     id="path222" />
  <path
     d="m -474.05106,-114.99067 66.05042,8.63357 m 57.67903,-60.15789 V -5.225662 m 0,0 26.42017,3.453426"
     style="fill:none;stroke:#000000;stroke-width:1.17377;stroke-linecap:round"
     id="path224" />
  <path
     d="m -314.74752,-11.739567 -26.42017,-3.453427 V -176.48232 Z M -474.05106,-114.99067 v 25.894897 l 66.05042,-17.261327 z"
     style="fill:#eeeeee;fill-opacity:0.4;stroke-width:1.17377"
     id="path226" />
  <path
     d="M -243.8584,-172.1319 V 5.89551 m 0,0 -9.15392,9.96733"
     style="fill:none;stroke:#000000;stroke-width:1.17377;stroke-linecap:round"
     id="path228" />
  <path
     d="m -474.05106,-89.095773 66.05042,8.633565 V -106.3571 Z m 194.61857,101.505193 9.15392,-9.96734 26.42017,3.45343 z"
     style="fill:#eeeeee;fill-opacity:0.4;stroke-width:1.17377"
     id="path230" />
  <path
     d="m -388.62542,-96.459014 26.46961,3.459889"
     style="fill:none;stroke:#000000;stroke-width:1.17377;stroke-linecap:round"
     id="path232" />
  <path
     d="m -408.00064,-106.3571 v 25.894892 l 9.15391,-35.862222 z"
     style="fill:#eeeeee;fill-opacity:0.4;stroke-width:1.17377"
     id="path234" />
  <path
     d="M -323.90144,-163.06157 V -1.772236 m -84.0992,-104.584864 v 25.894892"
     style="fill:none;stroke:#000000;stroke-width:1.17377;stroke-linecap:round"
     id="path236" />
  <path
     d="m -341.16769,-15.192994 -9.15392,9.967332 V -166.51499 Z m 17.26625,13.420758 9.15392,-9.967331 V -173.0289 Z m 70.88912,17.635076 -26.42017,-3.45342 35.57409,-6.51391 z"
     style="fill:#eeeeee;fill-opacity:0.4;stroke-width:1.17377"
     id="path238" />
  <path
     d="m -363.46414,-90.371999 1.30833,1.264378 14.82298,-1.953966 z m 2.11692,-6.655861 -1.61718,1.760885 15.63157,4.205388 z m -1.61718,1.760885 -0.49974,4.894976 16.13131,-0.689588 z"
     style="fill:#000000;stroke-width:1.17377"
     id="path240" />
  <path
     d="M -279.43249,-165.61799 V 12.40942 m 0,0 26.42017,3.45342 m 80.04304,-9.02372 -26.42017,-3.45343 m 0,-161.38254 V 3.38569 m 0,0 -9.15392,9.96734"
     style="fill:none;stroke:#000000;stroke-width:1.17377;stroke-linecap:round"
     id="path242" />
  <path
     d="m -243.8584,5.89551 -26.42017,-3.45343 v -178.0274 z m -70.88912,-178.92441 v 161.289333 l -26.42017,-164.742753 z m -26.42017,-3.45342 v 161.289326 l -9.15392,-151.321996 z m -9.15392,171.256658 26.42017,3.453426 V -163.06157 Z"
     style="fill:#eeeeee;fill-opacity:0.4;stroke-width:1.17377"
     id="path244" />
  <path
     d="m -253.01232,-162.16456 v 178.0274 m 80.04304,-170.40626 V 6.83912 m 0,0 -9.15392,9.96733 m -135.6131,-103.999424 26.46961,3.45989"
     style="fill:none;stroke:#000000;stroke-width:1.17377;stroke-linecap:round"
     id="path246" />
  <path
     d="m -208.54337,13.35303 9.15392,-9.96734 26.42017,3.45343 z m -61.7352,-10.91095 -9.15392,9.96734 v -178.02741 z m 17.26625,13.42076 9.15392,-9.96733 V -172.1319 Z"
     style="fill:#eeeeee;fill-opacity:0.4;stroke-width:1.17377"
     id="path248" />
  <path
     d="m -292.57502,-81.105958 1.30833,1.264378 14.82298,-1.953966 z m 2.11692,-6.655861 -1.61718,1.760884 15.63157,4.205389 z"
     style="fill:#000000;stroke-width:1.17377"
     id="path250" />
  <path
     d="m -314.74752,-173.0289 -26.42017,-3.45342 m 0,0 -9.15392,9.96733"
     style="fill:none;stroke:#000000;stroke-width:1.17377;stroke-linecap:round"
     id="path252" />
  <path
     d="m -292.07528,-86.000935 -0.49974,4.894977 16.13131,-0.689588 z"
     style="fill:#000000;stroke-width:1.17377"
     id="path254" />
  <path
     d="m -182.1232,16.80645 -26.42017,-3.45342 35.57409,-6.51391 z M -323.90144,-163.06157 V -1.772236 l 9.15392,-171.256664 z"
     style="fill:#eeeeee;fill-opacity:0.4;stroke-width:1.17377"
     id="path256" />
  <path
     d="M -208.54337,-148.02952 V 13.35303 m 0,0 26.42017,3.45342"
     style="fill:none;stroke:#000000;stroke-width:1.17377;stroke-linecap:round"
     id="path258" />
  <path
     d="M -172.96928,6.83912 -199.38945,3.38569 V -157.99685 Z M -350.32161,-166.51499 V -5.225662 l 26.42017,-157.835908 z m 106.46321,-5.61691 V 5.89551 l -26.42017,-181.48083 z m -35.57409,184.54132 26.42017,3.45342 v -178.0274 z"
     style="fill:#eeeeee;fill-opacity:0.4;stroke-width:1.17377"
     id="path260" />
  <path
     d="m -314.74752,-173.0289 -9.15392,9.96733"
     style="fill:none;stroke:#000000;stroke-width:1.17377;stroke-linecap:round"
     id="path262" />
  <path
     d="M -270.27857,-175.58532 V 2.44208 l -9.15392,-168.06007 z"
     style="fill:#eeeeee;fill-opacity:0.4;stroke-width:1.17377"
     id="path264" />
  <path
     d="m -323.90144,-163.06157 9.15392,-9.96733 -26.42017,-3.45342 z m 124.51199,166.44726 -9.15392,9.96734 v -161.38255 z m 17.26625,13.42076 9.15392,-9.96733 v -161.38254 z m -168.19841,-183.32144 26.42017,3.45342 -17.26625,-13.42075 z"
     style="fill:#eeeeee;fill-opacity:0.4;stroke-width:1.17377"
     id="path268" />
  <path
     d="m -350.32161,-166.51499 26.42017,3.45342 m 80.04304,-9.07033 -26.42017,-3.45342 m 0,0 -9.15392,9.96733"
     style="fill:none;stroke:#000000;stroke-width:1.17377;stroke-linecap:round"
     id="path272" />
  <path
     d="m -253.01232,-162.16456 v 178.0274 l 9.15392,-187.99473 z m 80.04304,7.62114 V 6.83912 l -26.42017,-164.83597 z m -106.46321,-11.07457 V 12.40942 l 26.42017,-174.57398 z m 80.04304,7.62114 V 3.38569 l -9.15392,-151.41521 z m -9.15392,171.34988 26.42017,3.45342 v -161.38254 z"
     style="fill:#eeeeee;fill-opacity:0.4;stroke-width:1.17377"
     id="path274" />
  <path
     d="m -243.8584,-172.1319 -9.15392,9.96734"
     style="fill:none;stroke:#000000;stroke-width:1.17377;stroke-linecap:round"
     id="path276" />
  <path
     d="m -253.01232,-162.16456 9.15392,-9.96734 -26.42017,-3.45342 z m -26.42017,-3.45343 26.42017,3.45343 -17.26625,-13.42076 z"
     style="fill:#eeeeee;fill-opacity:0.4;stroke-width:1.17377"
     id="path278" />
  <path
     d="m -172.96928,-154.54342 -26.42017,-3.45343 m 0,0 -9.15392,9.96733"
     style="fill:none;stroke:#000000;stroke-width:1.17377;stroke-linecap:round"
     id="path280" />
  <path
     d="m -279.43249,-165.61799 26.42017,3.45343"
     style="fill:none;stroke:#000000;stroke-width:1.17377;stroke-linecap:round"
     id="path284" />
  <path
     d="m -172.96928,-154.54342 -9.15392,9.96733"
     style="fill:none;stroke:#000000;stroke-width:1.17377;stroke-linecap:round"
     id="path288" />
  <path
     d="m -182.1232,-144.57609 9.15392,-9.96733 -26.42017,-3.45343 z m -26.42017,-3.45343 26.42017,3.45343 -17.26625,-13.42076 z"
     style="fill:#eeeeee;fill-opacity:0.4;stroke-width:1.17377"
     id="path290" />
  <path
     d="m -208.54337,-148.02952 26.42017,3.45343"
     style="fill:none;stroke:#000000;stroke-width:1.17377;stroke-linecap:round"
     id="path292" />
  <g
     transform="matrix(3.99999,0,0,3.99999,-814.98015,102.89689)"
     ns17:version="1.3.1"
     ns17:texconverter="pdflatex"
     ns17:pdfconverter="inkscape"
     ns17:text="CNNs \nRELU\nPooling"
     ns17:preamble="/home/tlefort/.config/inkscape/extensions/textext/default_packages.tex"
     ns17:scale="3.0"
     ns17:alignment="middle center"
     ns17:jacobian_sqrt="3.99999"
     id="g1938">
    <defs
       id="id-004475a7-a390-45dd-ac89-d4c617072c27">
      <g
         id="id-a9df766a-6514-4d12-8ae3-8cc4f36b0001">
        <symbol
           overflow="visible"
           id="id-bf307663-3573-4a44-9e11-b427b9587bab">
          <path
             style="stroke:none"
             d=""
             id="id-0049d555-92a5-444e-8fe4-e7cee79086df" />
        </symbol>
        <symbol
           overflow="visible"
           id="id-7436e2c9-b9a3-492d-b73d-c5ac198bf297">
          <path
             style="stroke:none"
             d="m 0.5625,-3.40625 c 0,2.0625 1.609375,3.625 3.46875,3.625 1.625,0 2.59375,-1.390625 2.59375,-2.546875 C 6.625,-2.421875 6.625,-2.5 6.5,-2.5 6.390625,-2.5 6.390625,-2.4375 6.375,-2.328125 6.296875,-0.90625 5.234375,-0.09375 4.140625,-0.09375 c -0.609375,0 -2.5625,-0.328125 -2.5625,-3.3125 0,-2.96875 1.953125,-3.3125 2.5625,-3.3125 1.078125,0 1.96875,0.90625 2.171875,2.359375 C 6.328125,-4.21875 6.328125,-4.1875 6.46875,-4.1875 6.625,-4.1875 6.625,-4.21875 6.625,-4.421875 V -6.78125 c 0,-0.171875 0,-0.25 -0.109375,-0.25 -0.03125,0 -0.078125,0 -0.15625,0.125 l -0.5,0.734375 C 5.5,-6.53125 4.984375,-7.03125 4.03125,-7.03125 c -1.875,0 -3.46875,1.59375 -3.46875,3.625 z m 0,0"
             id="id-79ece4a9-3c34-4b3f-9596-2df4fdd778d8" />
        </symbol>
        <symbol
           overflow="visible"
           id="id-b6010bd6-bb20-4324-923a-13be9d1b7587">
          <path
             style="stroke:none"
             d="M 2.3125,-6.671875 C 2.21875,-6.796875 2.21875,-6.8125 2.03125,-6.8125 H 0.328125 V -6.5 H 0.625 c 0.140625,0 0.34375,0.015625 0.484375,0.015625 0.234375,0.03125 0.25,0.046875 0.25,0.234375 v 5.203125 c 0,0.265625 0,0.734375 -1.03125,0.734375 V 0 C 0.671875,-0.015625 1.171875,-0.03125 1.5,-0.03125 c 0.328125,0 0.8125,0.015625 1.15625,0.03125 v -0.3125 c -1.015625,0 -1.015625,-0.46875 -1.015625,-0.734375 v -5.1875 c 0.046875,0.046875 0.046875,0.0625 0.09375,0.125 L 5.796875,-0.125 C 5.890625,-0.015625 5.90625,0 5.96875,0 6.109375,0 6.109375,-0.0625 6.109375,-0.265625 v -5.5 c 0,-0.265625 0,-0.734375 1.03125,-0.734375 v -0.3125 c -0.359375,0.015625 -0.84375,0.03125 -1.171875,0.03125 -0.328125,0 -0.8125,-0.015625 -1.15625,-0.03125 V -6.5 c 1.015625,0 1.015625,0.46875 1.015625,0.734375 V -1.5 Z m 0,0"
             id="id-5510912a-3725-488c-952b-d37860668245" />
        </symbol>
        <symbol
           overflow="visible"
           id="id-b465e231-9c33-4647-8aff-16cce88bed9f">
          <path
             style="stroke:none"
             d="m 2.078125,-1.9375 c 0.21875,0.046875 1.03125,0.203125 1.03125,0.921875 0,0.5 -0.34375,0.90625 -1.125,0.90625 -0.84375,0 -1.203125,-0.5625 -1.390625,-1.421875 C 0.5625,-1.65625 0.5625,-1.6875 0.453125,-1.6875 c -0.125,0 -0.125,0.0625 -0.125,0.234375 V -0.125 c 0,0.171875 0,0.234375 0.109375,0.234375 0.046875,0 0.0625,-0.015625 0.25,-0.203125 0.015625,-0.015625 0.015625,-0.03125 0.203125,-0.21875 0.4375,0.40625 0.890625,0.421875 1.09375,0.421875 1.140625,0 1.609375,-0.671875 1.609375,-1.390625 0,-0.515625 -0.296875,-0.828125 -0.421875,-0.9375 C 2.84375,-2.546875 2.453125,-2.625 2.03125,-2.703125 1.46875,-2.8125 0.8125,-2.9375 0.8125,-3.515625 c 0,-0.359375 0.25,-0.765625 1.109375,-0.765625 1.09375,0 1.15625,0.90625 1.171875,1.203125 0,0.09375 0.09375,0.09375 0.109375,0.09375 0.140625,0 0.140625,-0.046875 0.140625,-0.234375 v -1.015625 c 0,-0.15625 0,-0.234375 -0.109375,-0.234375 -0.046875,0 -0.078125,0 -0.203125,0.125 -0.03125,0.03125 -0.125,0.125 -0.171875,0.15625 -0.375,-0.28125 -0.78125,-0.28125 -0.9375,-0.28125 -1.21875,0 -1.59375,0.671875 -1.59375,1.234375 0,0.34375 0.15625,0.625 0.421875,0.84375 0.328125,0.25 0.609375,0.3125 1.328125,0.453125 z m 0,0"
             id="id-79f1283b-5e42-4337-a325-30eb2f91a9ed" />
        </symbol>
        <symbol
           overflow="visible"
           id="id-5065ab4c-3e4a-441b-89c3-8d0568a9ebaa">
          <path
             style="stroke:none"
             d="M 2.234375,-3.515625 V -6.09375 c 0,-0.234375 0,-0.359375 0.21875,-0.390625 C 2.546875,-6.5 2.84375,-6.5 3.046875,-6.5 c 0.890625,0 2,0.046875 2,1.484375 0,0.6875 -0.234375,1.5 -1.703125,1.5 z m 2.109375,0.125 C 5.296875,-3.625 6.078125,-4.234375 6.078125,-5.015625 6.078125,-5.96875 4.9375,-6.8125 3.484375,-6.8125 H 0.34375 V -6.5 h 0.25 c 0.765625,0 0.78125,0.109375 0.78125,0.46875 v 5.25 c 0,0.359375 -0.015625,0.46875 -0.78125,0.46875 h -0.25 V 0 c 0.359375,-0.03125 1.078125,-0.03125 1.453125,-0.03125 0.390625,0 1.109375,0 1.46875,0.03125 v -0.3125 h -0.25 c -0.765625,0 -0.78125,-0.109375 -0.78125,-0.46875 V -3.296875 H 3.375 c 0.15625,0 0.578125,0 0.9375,0.34375 0.375,0.34375 0.375,0.65625 0.375,1.328125 0,0.640625 0,1.046875 0.40625,1.421875 0.40625,0.359375 0.953125,0.421875 1.25,0.421875 0.78125,0 0.953125,-0.8125 0.953125,-1.09375 0,-0.0625 0,-0.171875 -0.125,-0.171875 -0.109375,0 -0.109375,0.09375 -0.125,0.15625 C 6.984375,-0.171875 6.640625,0 6.390625,0 5.90625,0 5.828125,-0.515625 5.6875,-1.4375 L 5.546875,-2.234375 C 5.375,-2.875 4.890625,-3.203125 4.34375,-3.390625 Z m 0,0"
             id="id-34bbe51f-5837-47e1-861e-8e221b33bb41" />
        </symbol>
        <symbol
           overflow="visible"
           id="id-0eba83da-c27a-49a5-bcde-202083a094b3">
          <path
             style="stroke:none"
             d="m 1.359375,-0.78125 c 0,0.359375 -0.03125,0.46875 -0.796875,0.46875 H 0.328125 V 0 h 5.75 L 6.5,-2.578125 H 6.25 C 6,-1.03125 5.765625,-0.3125 4.0625,-0.3125 H 2.734375 C 2.265625,-0.3125 2.25,-0.375 2.25,-0.703125 V -3.375 h 0.890625 c 0.96875,0 1.078125,0.328125 1.078125,1.171875 h 0.25 V -4.84375 h -0.25 c 0,0.859375 -0.109375,1.171875 -1.078125,1.171875 H 2.25 v -2.40625 c 0,-0.328125 0.015625,-0.390625 0.484375,-0.390625 h 1.28125 c 1.53125,0 1.796875,0.546875 1.953125,1.9375 h 0.25 l -0.28125,-2.25 H 0.328125 v 0.3125 H 0.5625 c 0.765625,0 0.796875,0.109375 0.796875,0.46875 z m 0,0"
             id="id-4963f136-56ba-496e-957a-ca5b37eff83e" />
        </symbol>
        <symbol
           overflow="visible"
           id="id-52e2a168-a2da-46b8-b95c-c9bf77998309">
          <path
             style="stroke:none"
             d="m 5.796875,-2.578125 h -0.25 c -0.109375,1.015625 -0.25,2.265625 -2,2.265625 h -0.8125 C 2.265625,-0.3125 2.25,-0.375 2.25,-0.703125 v -5.3125 C 2.25,-6.359375 2.25,-6.5 3.1875,-6.5 H 3.515625 V -6.8125 C 3.15625,-6.78125 2.25,-6.78125 1.84375,-6.78125 c -0.390625,0 -1.171875,0 -1.515625,-0.03125 V -6.5 H 0.5625 c 0.765625,0 0.796875,0.109375 0.796875,0.46875 v 5.25 c 0,0.359375 -0.03125,0.46875 -0.796875,0.46875 H 0.328125 V 0 h 5.1875 z m 0,0"
             id="id-bc7a5c71-5022-41dc-834a-7e1cecde59dc" />
        </symbol>
        <symbol
           overflow="visible"
           id="id-bb2f99ee-e45d-446a-ba6d-f5fcbc77055e">
          <path
             style="stroke:none"
             d="m 5.796875,-2.296875 c 0,1.40625 -0.96875,2.203125 -1.90625,2.203125 -0.46875,0 -1.640625,-0.25 -1.640625,-2.140625 V -6.03125 C 2.25,-6.390625 2.265625,-6.5 3.03125,-6.5 h 0.234375 v -0.3125 c -0.34375,0.03125 -1.078125,0.03125 -1.46875,0.03125 -0.375,0 -1.125,0 -1.46875,-0.03125 V -6.5 H 0.5625 c 0.765625,0 0.796875,0.109375 0.796875,0.46875 v 3.765625 c 0,1.390625 1.15625,2.484375 2.515625,2.484375 1.140625,0 2.03125,-0.921875 2.203125,-2.0625 0.03125,-0.203125 0.03125,-0.296875 0.03125,-0.6875 v -3.1875 c 0,-0.328125 0,-0.78125 1.03125,-0.78125 v -0.3125 c -0.359375,0.015625 -0.84375,0.03125 -1.171875,0.03125 -0.359375,0 -0.828125,-0.015625 -1.1875,-0.03125 V -6.5 c 1.015625,0 1.015625,0.46875 1.015625,0.734375 z m 0,0"
             id="id-bb4e76be-6d59-4500-9604-2be3e3cbc4a6" />
        </symbol>
        <symbol
           overflow="visible"
           id="id-31dd521e-01ef-4e3d-8511-c52fd615cabf">
          <path
             style="stroke:none"
             d="m 2.265625,-3.15625 h 1.6875 c 1.1875,0 2.265625,-0.796875 2.265625,-1.796875 C 6.21875,-5.9375 5.234375,-6.8125 3.875,-6.8125 H 0.34375 V -6.5 h 0.25 c 0.765625,0 0.78125,0.109375 0.78125,0.46875 v 5.25 c 0,0.359375 -0.015625,0.46875 -0.78125,0.46875 h -0.25 V 0 c 0.359375,-0.03125 1.09375,-0.03125 1.46875,-0.03125 0.375,0 1.125,0 1.484375,0.03125 v -0.3125 h -0.25 c -0.765625,0 -0.78125,-0.109375 -0.78125,-0.46875 z m -0.03125,-0.25 v -2.6875 C 2.234375,-6.4375 2.25,-6.5 2.71875,-6.5 h 0.890625 c 1.578125,0 1.578125,1.0625 1.578125,1.546875 0,0.46875 0,1.546875 -1.578125,1.546875 z m 0,0"
             id="id-aa918f1b-74eb-418b-9250-d3a9c9f9ae4f" />
        </symbol>
        <symbol
           overflow="visible"
           id="id-e6a3363d-e85f-4bbb-94f3-e6d38e58d8fd">
          <path
             style="stroke:none"
             d="M 4.6875,-2.140625 C 4.6875,-3.40625 3.703125,-4.46875 2.5,-4.46875 c -1.25,0 -2.21875,1.09375 -2.21875,2.328125 0,1.296875 1.03125,2.25 2.203125,2.25 1.203125,0 2.203125,-0.984375 2.203125,-2.25 z m -2.1875,2 c -0.4375,0 -0.875,-0.203125 -1.140625,-0.671875 -0.25,-0.4375 -0.25,-1.046875 -0.25,-1.40625 0,-0.390625 0,-0.921875 0.234375,-1.359375 C 1.609375,-4.03125 2.078125,-4.25 2.484375,-4.25 c 0.4375,0 0.859375,0.21875 1.125,0.65625 0.265625,0.421875 0.265625,1 0.265625,1.375 0,0.359375 0,0.90625 -0.21875,1.34375 C 3.421875,-0.421875 2.984375,-0.140625 2.5,-0.140625 Z m 0,0"
             id="id-e9bd136b-477e-4e63-aa7a-35020dc482c3" />
        </symbol>
        <symbol
           overflow="visible"
           id="id-f494b93f-efab-48df-b756-57b8679d7242">
          <path
             style="stroke:none"
             d="M 1.765625,-6.921875 0.328125,-6.8125 V -6.5 c 0.703125,0 0.78125,0.0625 0.78125,0.5625 V -0.75 c 0,0.4375 -0.109375,0.4375 -0.78125,0.4375 V 0 C 0.65625,-0.015625 1.1875,-0.03125 1.4375,-0.03125 c 0.25,0 0.734375,0.015625 1.109375,0.03125 v -0.3125 c -0.671875,0 -0.78125,0 -0.78125,-0.4375 z m 0,0"
             id="id-fda6b8f6-0cb9-4f80-ac14-e4d9007173e6" />
        </symbol>
        <symbol
           overflow="visible"
           id="id-872606f3-c1c0-48ce-8fc9-48754fcf5b83">
          <path
             style="stroke:none"
             d="M 1.765625,-4.40625 0.375,-4.296875 v 0.3125 c 0.640625,0 0.734375,0.0625 0.734375,0.546875 V -0.75 c 0,0.4375 -0.109375,0.4375 -0.78125,0.4375 V 0 C 0.640625,-0.015625 1.1875,-0.03125 1.421875,-0.03125 1.78125,-0.03125 2.125,-0.015625 2.46875,0 v -0.3125 c -0.671875,0 -0.703125,-0.046875 -0.703125,-0.4375 z m 0.03125,-1.734375 c 0,-0.3125 -0.234375,-0.53125 -0.515625,-0.53125 -0.3125,0 -0.53125,0.265625 -0.53125,0.53125 0,0.265625 0.21875,0.53125 0.53125,0.53125 0.28125,0 0.515625,-0.21875 0.515625,-0.53125 z m 0,0"
             id="id-d8e90701-4119-4d42-a84f-77d7a13be5eb" />
        </symbol>
        <symbol
           overflow="visible"
           id="id-d9f25b1d-7058-44d9-8bb6-b31cdcc59e90">
          <path
             style="stroke:none"
             d="M 1.09375,-3.421875 V -0.75 c 0,0.4375 -0.109375,0.4375 -0.78125,0.4375 V 0 c 0.359375,-0.015625 0.859375,-0.03125 1.140625,-0.03125 0.25,0 0.765625,0.015625 1.109375,0.03125 v -0.3125 c -0.671875,0 -0.78125,0 -0.78125,-0.4375 V -2.59375 C 1.78125,-3.625 2.5,-4.1875 3.125,-4.1875 c 0.640625,0 0.75,0.53125 0.75,1.109375 V -0.75 c 0,0.4375 -0.109375,0.4375 -0.78125,0.4375 V 0 c 0.34375,-0.015625 0.859375,-0.03125 1.125,-0.03125 0.25,0 0.78125,0.015625 1.109375,0.03125 v -0.3125 c -0.515625,0 -0.765625,0 -0.765625,-0.296875 v -1.90625 c 0,-0.859375 0,-1.15625 -0.3125,-1.515625 -0.140625,-0.171875 -0.46875,-0.375 -1.046875,-0.375 C 2.46875,-4.40625 2,-3.984375 1.71875,-3.359375 V -4.40625 L 0.3125,-4.296875 v 0.3125 c 0.703125,0 0.78125,0.0625 0.78125,0.5625 z m 0,0"
             id="id-1c1d488a-b9db-46b1-b80e-df29f1d9dd96" />
        </symbol>
        <symbol
           overflow="visible"
           id="id-37132dba-ff0b-463b-8f89-00028597a113">
          <path
             style="stroke:none"
             d="m 2.21875,-1.71875 c -0.875,0 -0.875,-1 -0.875,-1.21875 0,-0.265625 0.015625,-0.59375 0.15625,-0.84375 0.078125,-0.109375 0.3125,-0.390625 0.71875,-0.390625 0.859375,0 0.859375,0.984375 0.859375,1.21875 0,0.265625 0,0.59375 -0.15625,0.84375 C 2.84375,-2 2.609375,-1.71875 2.21875,-1.71875 Z M 1.0625,-1.328125 c 0,-0.03125 0,-0.265625 0.15625,-0.46875 0.390625,0.28125 0.8125,0.3125 1,0.3125 0.921875,0 1.609375,-0.6875 1.609375,-1.453125 0,-0.375 -0.15625,-0.734375 -0.40625,-0.96875 C 3.78125,-4.25 4.140625,-4.296875 4.3125,-4.296875 c 0.03125,0 0.078125,0 0.109375,0.015625 C 4.3125,-4.25 4.25,-4.140625 4.25,-4.015625 c 0,0.171875 0.140625,0.28125 0.296875,0.28125 0.09375,0 0.28125,-0.0625 0.28125,-0.296875 0,-0.171875 -0.109375,-0.484375 -0.5,-0.484375 -0.203125,0 -0.640625,0.0625 -1.0625,0.46875 C 2.84375,-4.375 2.4375,-4.40625 2.21875,-4.40625 c -0.9375,0 -1.625,0.6875 -1.625,1.453125 0,0.4375 0.21875,0.8125 0.46875,1.03125 -0.125,0.140625 -0.3125,0.46875 -0.3125,0.828125 0,0.3125 0.140625,0.6875 0.453125,0.890625 -0.609375,0.15625 -0.921875,0.59375 -0.921875,0.984375 0,0.71875 0.984375,1.265625 2.203125,1.265625 1.171875,0 2.203125,-0.5 2.203125,-1.28125 0,-0.34375 -0.125,-0.859375 -0.640625,-1.140625 -0.53125,-0.265625 -1.109375,-0.265625 -1.71875,-0.265625 -0.25,0 -0.671875,0 -0.75,-0.015625 C 1.265625,-0.703125 1.0625,-1 1.0625,-1.328125 Z M 2.5,1.828125 c -1.015625,0 -1.703125,-0.515625 -1.703125,-1.046875 0,-0.453125 0.375,-0.828125 0.8125,-0.84375 h 0.59375 c 0.859375,0 1.96875,0 1.96875,0.84375 0,0.546875 -0.703125,1.046875 -1.671875,1.046875 z m 0,0"
             id="id-adc7c983-a164-413d-9f4f-1b3dc445768b" />
        </symbol>
      </g>
    </defs>
    <g
       id="id-d249ebdd-79fa-4a23-b3ab-d32edec62f95"
       transform="translate(-149.275,-127.734)">
      <g
         style="fill:#000000;fill-opacity:1"
         id="id-c8d223db-0b2a-4cb6-b83f-22459669fb4f">
        <g
           transform="translate(148.712,134.765)"
           id="g2449">
          <path
             style="stroke:none"
             d="m 0.5625,-3.40625 c 0,2.0625 1.609375,3.625 3.46875,3.625 1.625,0 2.59375,-1.390625 2.59375,-2.546875 C 6.625,-2.421875 6.625,-2.5 6.5,-2.5 6.390625,-2.5 6.390625,-2.4375 6.375,-2.328125 6.296875,-0.90625 5.234375,-0.09375 4.140625,-0.09375 c -0.609375,0 -2.5625,-0.328125 -2.5625,-3.3125 0,-2.96875 1.953125,-3.3125 2.5625,-3.3125 1.078125,0 1.96875,0.90625 2.171875,2.359375 C 6.328125,-4.21875 6.328125,-4.1875 6.46875,-4.1875 6.625,-4.1875 6.625,-4.21875 6.625,-4.421875 V -6.78125 c 0,-0.171875 0,-0.25 -0.109375,-0.25 -0.03125,0 -0.078125,0 -0.15625,0.125 l -0.5,0.734375 C 5.5,-6.53125 4.984375,-7.03125 4.03125,-7.03125 c -1.875,0 -3.46875,1.59375 -3.46875,3.625 z m 0,0"
             id="id-8d79e0cf-9f2e-4253-8f4e-cd0917899891" />
        </g>
        <g
           transform="translate(155.907,134.765)"
           id="g2452">
          <path
             style="stroke:none"
             d="M 2.3125,-6.671875 C 2.21875,-6.796875 2.21875,-6.8125 2.03125,-6.8125 H 0.328125 V -6.5 H 0.625 c 0.140625,0 0.34375,0.015625 0.484375,0.015625 0.234375,0.03125 0.25,0.046875 0.25,0.234375 v 5.203125 c 0,0.265625 0,0.734375 -1.03125,0.734375 V 0 C 0.671875,-0.015625 1.171875,-0.03125 1.5,-0.03125 c 0.328125,0 0.8125,0.015625 1.15625,0.03125 v -0.3125 c -1.015625,0 -1.015625,-0.46875 -1.015625,-0.734375 v -5.1875 c 0.046875,0.046875 0.046875,0.0625 0.09375,0.125 L 5.796875,-0.125 C 5.890625,-0.015625 5.90625,0 5.96875,0 6.109375,0 6.109375,-0.0625 6.109375,-0.265625 v -5.5 c 0,-0.265625 0,-0.734375 1.03125,-0.734375 v -0.3125 c -0.359375,0.015625 -0.84375,0.03125 -1.171875,0.03125 -0.328125,0 -0.8125,-0.015625 -1.15625,-0.03125 V -6.5 c 1.015625,0 1.015625,0.46875 1.015625,0.734375 V -1.5 Z m 0,0"
             id="id-c1a74eb7-aa98-4933-a55f-b55f11ffe0b6" />
        </g>
        <g
           transform="translate(163.379,134.765)"
           id="g2455">
          <path
             style="stroke:none"
             d="M 2.3125,-6.671875 C 2.21875,-6.796875 2.21875,-6.8125 2.03125,-6.8125 H 0.328125 V -6.5 H 0.625 c 0.140625,0 0.34375,0.015625 0.484375,0.015625 0.234375,0.03125 0.25,0.046875 0.25,0.234375 v 5.203125 c 0,0.265625 0,0.734375 -1.03125,0.734375 V 0 C 0.671875,-0.015625 1.171875,-0.03125 1.5,-0.03125 c 0.328125,0 0.8125,0.015625 1.15625,0.03125 v -0.3125 c -1.015625,0 -1.015625,-0.46875 -1.015625,-0.734375 v -5.1875 c 0.046875,0.046875 0.046875,0.0625 0.09375,0.125 L 5.796875,-0.125 C 5.890625,-0.015625 5.90625,0 5.96875,0 6.109375,0 6.109375,-0.0625 6.109375,-0.265625 v -5.5 c 0,-0.265625 0,-0.734375 1.03125,-0.734375 v -0.3125 c -0.359375,0.015625 -0.84375,0.03125 -1.171875,0.03125 -0.328125,0 -0.8125,-0.015625 -1.15625,-0.03125 V -6.5 c 1.015625,0 1.015625,0.46875 1.015625,0.734375 V -1.5 Z m 0,0"
             id="id-81b68318-5371-40e5-bcc0-fb5efa2b5188" />
        </g>
        <g
           transform="translate(170.851,134.765)"
           id="g2458">
          <path
             style="stroke:none"
             d="m 2.078125,-1.9375 c 0.21875,0.046875 1.03125,0.203125 1.03125,0.921875 0,0.5 -0.34375,0.90625 -1.125,0.90625 -0.84375,0 -1.203125,-0.5625 -1.390625,-1.421875 C 0.5625,-1.65625 0.5625,-1.6875 0.453125,-1.6875 c -0.125,0 -0.125,0.0625 -0.125,0.234375 V -0.125 c 0,0.171875 0,0.234375 0.109375,0.234375 0.046875,0 0.0625,-0.015625 0.25,-0.203125 0.015625,-0.015625 0.015625,-0.03125 0.203125,-0.21875 0.4375,0.40625 0.890625,0.421875 1.09375,0.421875 1.140625,0 1.609375,-0.671875 1.609375,-1.390625 0,-0.515625 -0.296875,-0.828125 -0.421875,-0.9375 C 2.84375,-2.546875 2.453125,-2.625 2.03125,-2.703125 1.46875,-2.8125 0.8125,-2.9375 0.8125,-3.515625 c 0,-0.359375 0.25,-0.765625 1.109375,-0.765625 1.09375,0 1.15625,0.90625 1.171875,1.203125 0,0.09375 0.09375,0.09375 0.109375,0.09375 0.140625,0 0.140625,-0.046875 0.140625,-0.234375 v -1.015625 c 0,-0.15625 0,-0.234375 -0.109375,-0.234375 -0.046875,0 -0.078125,0 -0.203125,0.125 -0.03125,0.03125 -0.125,0.125 -0.171875,0.15625 -0.375,-0.28125 -0.78125,-0.28125 -0.9375,-0.28125 -1.21875,0 -1.59375,0.671875 -1.59375,1.234375 0,0.34375 0.15625,0.625 0.421875,0.84375 0.328125,0.25 0.609375,0.3125 1.328125,0.453125 z m 0,0"
             id="id-5622a716-aa49-4f2c-9109-70bc18f127ec" />
        </g>
      </g>
      <g
         style="fill:#000000;fill-opacity:1"
         id="id-b02ece54-7397-4946-a3e9-2a4b0187fb63">
        <g
           transform="translate(178.098,134.765)"
           id="g2462">
          <path
             style="stroke:none"
             d="M 2.234375,-3.515625 V -6.09375 c 0,-0.234375 0,-0.359375 0.21875,-0.390625 C 2.546875,-6.5 2.84375,-6.5 3.046875,-6.5 c 0.890625,0 2,0.046875 2,1.484375 0,0.6875 -0.234375,1.5 -1.703125,1.5 z m 2.109375,0.125 C 5.296875,-3.625 6.078125,-4.234375 6.078125,-5.015625 6.078125,-5.96875 4.9375,-6.8125 3.484375,-6.8125 H 0.34375 V -6.5 h 0.25 c 0.765625,0 0.78125,0.109375 0.78125,0.46875 v 5.25 c 0,0.359375 -0.015625,0.46875 -0.78125,0.46875 h -0.25 V 0 c 0.359375,-0.03125 1.078125,-0.03125 1.453125,-0.03125 0.390625,0 1.109375,0 1.46875,0.03125 v -0.3125 h -0.25 c -0.765625,0 -0.78125,-0.109375 -0.78125,-0.46875 V -3.296875 H 3.375 c 0.15625,0 0.578125,0 0.9375,0.34375 0.375,0.34375 0.375,0.65625 0.375,1.328125 0,0.640625 0,1.046875 0.40625,1.421875 0.40625,0.359375 0.953125,0.421875 1.25,0.421875 0.78125,0 0.953125,-0.8125 0.953125,-1.09375 0,-0.0625 0,-0.171875 -0.125,-0.171875 -0.109375,0 -0.109375,0.09375 -0.125,0.15625 C 6.984375,-0.171875 6.640625,0 6.390625,0 5.90625,0 5.828125,-0.515625 5.6875,-1.4375 L 5.546875,-2.234375 C 5.375,-2.875 4.890625,-3.203125 4.34375,-3.390625 Z m 0,0"
             id="id-1e179a1a-48c2-4fb3-9693-ba8c30e48060" />
        </g>
        <g
           transform="translate(185.431,134.765)"
           id="g2465">
          <path
             style="stroke:none"
             d="m 1.359375,-0.78125 c 0,0.359375 -0.03125,0.46875 -0.796875,0.46875 H 0.328125 V 0 h 5.75 L 6.5,-2.578125 H 6.25 C 6,-1.03125 5.765625,-0.3125 4.0625,-0.3125 H 2.734375 C 2.265625,-0.3125 2.25,-0.375 2.25,-0.703125 V -3.375 h 0.890625 c 0.96875,0 1.078125,0.328125 1.078125,1.171875 h 0.25 V -4.84375 h -0.25 c 0,0.859375 -0.109375,1.171875 -1.078125,1.171875 H 2.25 v -2.40625 c 0,-0.328125 0.015625,-0.390625 0.484375,-0.390625 h 1.28125 c 1.53125,0 1.796875,0.546875 1.953125,1.9375 h 0.25 l -0.28125,-2.25 H 0.328125 v 0.3125 H 0.5625 c 0.765625,0 0.796875,0.109375 0.796875,0.46875 z m 0,0"
             id="id-930b4b11-617c-466f-b4d6-bb286bf037b5" />
        </g>
        <g
           transform="translate(192.212,134.765)"
           id="g2468">
          <path
             style="stroke:none"
             d="m 5.796875,-2.578125 h -0.25 c -0.109375,1.015625 -0.25,2.265625 -2,2.265625 h -0.8125 C 2.265625,-0.3125 2.25,-0.375 2.25,-0.703125 v -5.3125 C 2.25,-6.359375 2.25,-6.5 3.1875,-6.5 H 3.515625 V -6.8125 C 3.15625,-6.78125 2.25,-6.78125 1.84375,-6.78125 c -0.390625,0 -1.171875,0 -1.515625,-0.03125 V -6.5 H 0.5625 c 0.765625,0 0.796875,0.109375 0.796875,0.46875 v 5.25 c 0,0.359375 -0.03125,0.46875 -0.796875,0.46875 H 0.328125 V 0 h 5.1875 z m 0,0"
             id="id-da4655c7-9195-4ec0-9d29-2293d7061a46" />
        </g>
        <g
           transform="translate(198.438,134.765)"
           id="g2471">
          <path
             style="stroke:none"
             d="m 5.796875,-2.296875 c 0,1.40625 -0.96875,2.203125 -1.90625,2.203125 -0.46875,0 -1.640625,-0.25 -1.640625,-2.140625 V -6.03125 C 2.25,-6.390625 2.265625,-6.5 3.03125,-6.5 h 0.234375 v -0.3125 c -0.34375,0.03125 -1.078125,0.03125 -1.46875,0.03125 -0.375,0 -1.125,0 -1.46875,-0.03125 V -6.5 H 0.5625 c 0.765625,0 0.796875,0.109375 0.796875,0.46875 v 3.765625 c 0,1.390625 1.15625,2.484375 2.515625,2.484375 1.140625,0 2.03125,-0.921875 2.203125,-2.0625 0.03125,-0.203125 0.03125,-0.296875 0.03125,-0.6875 v -3.1875 c 0,-0.328125 0,-0.78125 1.03125,-0.78125 v -0.3125 c -0.359375,0.015625 -0.84375,0.03125 -1.171875,0.03125 -0.359375,0 -0.828125,-0.015625 -1.1875,-0.03125 V -6.5 c 1.015625,0 1.015625,0.46875 1.015625,0.734375 z m 0,0"
             id="id-c021ec1d-ffeb-4f5e-a61a-92d1c69e50d3" />
        </g>
      </g>
      <g
         style="fill:#000000;fill-opacity:1"
         id="id-76114dae-5de6-46f7-84c5-4ea0ec50203b">
        <g
           transform="translate(209.238,134.765)"
           id="g2475">
          <path
             style="stroke:none"
             d="m 2.265625,-3.15625 h 1.6875 c 1.1875,0 2.265625,-0.796875 2.265625,-1.796875 C 6.21875,-5.9375 5.234375,-6.8125 3.875,-6.8125 H 0.34375 V -6.5 h 0.25 c 0.765625,0 0.78125,0.109375 0.78125,0.46875 v 5.25 c 0,0.359375 -0.015625,0.46875 -0.78125,0.46875 h -0.25 V 0 c 0.359375,-0.03125 1.09375,-0.03125 1.46875,-0.03125 0.375,0 1.125,0 1.484375,0.03125 v -0.3125 h -0.25 c -0.765625,0 -0.78125,-0.109375 -0.78125,-0.46875 z m -0.03125,-0.25 v -2.6875 C 2.234375,-6.4375 2.25,-6.5 2.71875,-6.5 h 0.890625 c 1.578125,0 1.578125,1.0625 1.578125,1.546875 0,0.46875 0,1.546875 -1.578125,1.546875 z m 0,0"
             id="id-72fc37ae-d0a6-40a2-a65f-65bf37528e06" />
        </g>
      </g>
      <g
         style="fill:#000000;fill-opacity:1"
         id="id-02960097-c1dc-4238-9bf6-ec03c83fa230">
        <g
           transform="translate(215.739,134.765)"
           id="g2479">
          <path
             style="stroke:none"
             d="M 4.6875,-2.140625 C 4.6875,-3.40625 3.703125,-4.46875 2.5,-4.46875 c -1.25,0 -2.21875,1.09375 -2.21875,2.328125 0,1.296875 1.03125,2.25 2.203125,2.25 1.203125,0 2.203125,-0.984375 2.203125,-2.25 z m -2.1875,2 c -0.4375,0 -0.875,-0.203125 -1.140625,-0.671875 -0.25,-0.4375 -0.25,-1.046875 -0.25,-1.40625 0,-0.390625 0,-0.921875 0.234375,-1.359375 C 1.609375,-4.03125 2.078125,-4.25 2.484375,-4.25 c 0.4375,0 0.859375,0.21875 1.125,0.65625 0.265625,0.421875 0.265625,1 0.265625,1.375 0,0.359375 0,0.90625 -0.21875,1.34375 C 3.421875,-0.421875 2.984375,-0.140625 2.5,-0.140625 Z m 0,0"
             id="id-3a889362-8831-4b72-9e54-dfe9a8862db7" />
        </g>
      </g>
      <g
         style="fill:#000000;fill-opacity:1"
         id="id-6eaac4e9-e9f2-4679-be3a-38721171b333">
        <g
           transform="translate(221,134.765)"
           id="g2483">
          <path
             style="stroke:none"
             d="M 4.6875,-2.140625 C 4.6875,-3.40625 3.703125,-4.46875 2.5,-4.46875 c -1.25,0 -2.21875,1.09375 -2.21875,2.328125 0,1.296875 1.03125,2.25 2.203125,2.25 1.203125,0 2.203125,-0.984375 2.203125,-2.25 z m -2.1875,2 c -0.4375,0 -0.875,-0.203125 -1.140625,-0.671875 -0.25,-0.4375 -0.25,-1.046875 -0.25,-1.40625 0,-0.390625 0,-0.921875 0.234375,-1.359375 C 1.609375,-4.03125 2.078125,-4.25 2.484375,-4.25 c 0.4375,0 0.859375,0.21875 1.125,0.65625 0.265625,0.421875 0.265625,1 0.265625,1.375 0,0.359375 0,0.90625 -0.21875,1.34375 C 3.421875,-0.421875 2.984375,-0.140625 2.5,-0.140625 Z m 0,0"
             id="id-93e8c96c-0ded-4d61-b877-745a98a58ee3" />
        </g>
        <g
           transform="translate(225.981,134.765)"
           id="g2486">
          <path
             style="stroke:none"
             d="M 1.765625,-6.921875 0.328125,-6.8125 V -6.5 c 0.703125,0 0.78125,0.0625 0.78125,0.5625 V -0.75 c 0,0.4375 -0.109375,0.4375 -0.78125,0.4375 V 0 C 0.65625,-0.015625 1.1875,-0.03125 1.4375,-0.03125 c 0.25,0 0.734375,0.015625 1.109375,0.03125 v -0.3125 c -0.671875,0 -0.78125,0 -0.78125,-0.4375 z m 0,0"
             id="id-97714ea1-93d5-4c42-8540-1c8a3b0c3a8e" />
        </g>
        <g
           transform="translate(228.749,134.765)"
           id="g2489">
          <path
             style="stroke:none"
             d="M 1.765625,-4.40625 0.375,-4.296875 v 0.3125 c 0.640625,0 0.734375,0.0625 0.734375,0.546875 V -0.75 c 0,0.4375 -0.109375,0.4375 -0.78125,0.4375 V 0 C 0.640625,-0.015625 1.1875,-0.03125 1.421875,-0.03125 1.78125,-0.03125 2.125,-0.015625 2.46875,0 v -0.3125 c -0.671875,0 -0.703125,-0.046875 -0.703125,-0.4375 z m 0.03125,-1.734375 c 0,-0.3125 -0.234375,-0.53125 -0.515625,-0.53125 -0.3125,0 -0.53125,0.265625 -0.53125,0.53125 0,0.265625 0.21875,0.53125 0.53125,0.53125 0.28125,0 0.515625,-0.21875 0.515625,-0.53125 z m 0,0"
             id="id-6748134e-dfd0-4fc6-aab3-2efb67fbba16" />
        </g>
        <g
           transform="translate(231.516,134.765)"
           id="g2492">
          <path
             style="stroke:none"
             d="M 1.09375,-3.421875 V -0.75 c 0,0.4375 -0.109375,0.4375 -0.78125,0.4375 V 0 c 0.359375,-0.015625 0.859375,-0.03125 1.140625,-0.03125 0.25,0 0.765625,0.015625 1.109375,0.03125 v -0.3125 c -0.671875,0 -0.78125,0 -0.78125,-0.4375 V -2.59375 C 1.78125,-3.625 2.5,-4.1875 3.125,-4.1875 c 0.640625,0 0.75,0.53125 0.75,1.109375 V -0.75 c 0,0.4375 -0.109375,0.4375 -0.78125,0.4375 V 0 c 0.34375,-0.015625 0.859375,-0.03125 1.125,-0.03125 0.25,0 0.78125,0.015625 1.109375,0.03125 v -0.3125 c -0.515625,0 -0.765625,0 -0.765625,-0.296875 v -1.90625 c 0,-0.859375 0,-1.15625 -0.3125,-1.515625 -0.140625,-0.171875 -0.46875,-0.375 -1.046875,-0.375 C 2.46875,-4.40625 2,-3.984375 1.71875,-3.359375 V -4.40625 L 0.3125,-4.296875 v 0.3125 c 0.703125,0 0.78125,0.0625 0.78125,0.5625 z m 0,0"
             id="id-36e85f7a-2a48-4338-9e50-20fb49ca1902" />
        </g>
        <g
           transform="translate(237.051,134.765)"
           id="g2495">
          <path
             style="stroke:none"
             d="m 2.21875,-1.71875 c -0.875,0 -0.875,-1 -0.875,-1.21875 0,-0.265625 0.015625,-0.59375 0.15625,-0.84375 0.078125,-0.109375 0.3125,-0.390625 0.71875,-0.390625 0.859375,0 0.859375,0.984375 0.859375,1.21875 0,0.265625 0,0.59375 -0.15625,0.84375 C 2.84375,-2 2.609375,-1.71875 2.21875,-1.71875 Z M 1.0625,-1.328125 c 0,-0.03125 0,-0.265625 0.15625,-0.46875 0.390625,0.28125 0.8125,0.3125 1,0.3125 0.921875,0 1.609375,-0.6875 1.609375,-1.453125 0,-0.375 -0.15625,-0.734375 -0.40625,-0.96875 C 3.78125,-4.25 4.140625,-4.296875 4.3125,-4.296875 c 0.03125,0 0.078125,0 0.109375,0.015625 C 4.3125,-4.25 4.25,-4.140625 4.25,-4.015625 c 0,0.171875 0.140625,0.28125 0.296875,0.28125 0.09375,0 0.28125,-0.0625 0.28125,-0.296875 0,-0.171875 -0.109375,-0.484375 -0.5,-0.484375 -0.203125,0 -0.640625,0.0625 -1.0625,0.46875 C 2.84375,-4.375 2.4375,-4.40625 2.21875,-4.40625 c -0.9375,0 -1.625,0.6875 -1.625,1.453125 0,0.4375 0.21875,0.8125 0.46875,1.03125 -0.125,0.140625 -0.3125,0.46875 -0.3125,0.828125 0,0.3125 0.140625,0.6875 0.453125,0.890625 -0.609375,0.15625 -0.921875,0.59375 -0.921875,0.984375 0,0.71875 0.984375,1.265625 2.203125,1.265625 1.171875,0 2.203125,-0.5 2.203125,-1.28125 0,-0.34375 -0.125,-0.859375 -0.640625,-1.140625 -0.53125,-0.265625 -1.109375,-0.265625 -1.71875,-0.265625 -0.25,0 -0.671875,0 -0.75,-0.015625 C 1.265625,-0.703125 1.0625,-1 1.0625,-1.328125 Z M 2.5,1.828125 c -1.015625,0 -1.703125,-0.515625 -1.703125,-1.046875 0,-0.453125 0.375,-0.828125 0.8125,-0.84375 h 0.59375 c 0.859375,0 1.96875,0 1.96875,0.84375 0,0.546875 -0.703125,1.046875 -1.671875,1.046875 z m 0,0"
             id="id-33e51198-f01b-43a3-b1c0-782fbc0fdbbd" />
        </g>
      </g>
    </g>
  </g>
  <g
     transform="matrix(3.99999,0,0,3.99999,-382.99194,101.46999)"
     ns17:version="1.3.1"
     ns17:texconverter="pdflatex"
     ns17:pdfconverter="inkscape"
     ns17:text="Logistic regression\n"
     ns17:preamble="/home/tlefort/.config/inkscape/extensions/textext/default_packages.tex"
     ns17:scale="3.0"
     ns17:alignment="middle center"
     ns17:jacobian_sqrt="3.99999"
     id="g3111">
    <defs
       id="id-4f3ab771-66ec-434f-a2d9-597fd8e90cbc">
      <g
         id="id-0f635363-7991-4803-8df0-880177743993">
        <symbol
           overflow="visible"
           id="id-33df2a20-fcdc-411a-924c-97b926d19ff2">
          <path
             style="stroke:none;stroke-width:0"
             d=""
             id="id-e789ebe0-5816-46a7-8504-07a92ccf6796" />
        </symbol>
        <symbol
           overflow="visible"
           id="id-83f15001-10fd-45df-9232-5a9f125fb6f5">
          <path
             style="stroke:none;stroke-width:0"
             d="m 5.796875,-2.578125 h -0.25 c -0.109375,1.015625 -0.25,2.265625 -2,2.265625 h -0.8125 C 2.265625,-0.3125 2.25,-0.375 2.25,-0.703125 v -5.3125 C 2.25,-6.359375 2.25,-6.5 3.1875,-6.5 H 3.515625 V -6.8125 C 3.15625,-6.78125 2.25,-6.78125 1.84375,-6.78125 c -0.390625,0 -1.171875,0 -1.515625,-0.03125 V -6.5 H 0.5625 c 0.765625,0 0.796875,0.109375 0.796875,0.46875 v 5.25 c 0,0.359375 -0.03125,0.46875 -0.796875,0.46875 H 0.328125 V 0 h 5.1875 z m 0,0"
             id="id-c19178aa-0819-4a18-ae69-bd3971747648" />
        </symbol>
        <symbol
           overflow="visible"
           id="id-d777e830-bdbe-47fb-be9c-f65546fa7f5d">
          <path
             style="stroke:none;stroke-width:0"
             d="M 4.6875,-2.140625 C 4.6875,-3.40625 3.703125,-4.46875 2.5,-4.46875 c -1.25,0 -2.21875,1.09375 -2.21875,2.328125 0,1.296875 1.03125,2.25 2.203125,2.25 1.203125,0 2.203125,-0.984375 2.203125,-2.25 z m -2.1875,2 c -0.4375,0 -0.875,-0.203125 -1.140625,-0.671875 -0.25,-0.4375 -0.25,-1.046875 -0.25,-1.40625 0,-0.390625 0,-0.921875 0.234375,-1.359375 C 1.609375,-4.03125 2.078125,-4.25 2.484375,-4.25 c 0.4375,0 0.859375,0.21875 1.125,0.65625 0.265625,0.421875 0.265625,1 0.265625,1.375 0,0.359375 0,0.90625 -0.21875,1.34375 C 3.421875,-0.421875 2.984375,-0.140625 2.5,-0.140625 Z m 0,0"
             id="id-5ff527ea-b2ec-4525-af0b-72e8bfb61dc0" />
        </symbol>
        <symbol
           overflow="visible"
           id="id-a81368a1-e950-4872-91c2-b4c3c0da976b">
          <path
             style="stroke:none;stroke-width:0"
             d="m 2.21875,-1.71875 c -0.875,0 -0.875,-1 -0.875,-1.21875 0,-0.265625 0.015625,-0.59375 0.15625,-0.84375 0.078125,-0.109375 0.3125,-0.390625 0.71875,-0.390625 0.859375,0 0.859375,0.984375 0.859375,1.21875 0,0.265625 0,0.59375 -0.15625,0.84375 C 2.84375,-2 2.609375,-1.71875 2.21875,-1.71875 Z M 1.0625,-1.328125 c 0,-0.03125 0,-0.265625 0.15625,-0.46875 0.390625,0.28125 0.8125,0.3125 1,0.3125 0.921875,0 1.609375,-0.6875 1.609375,-1.453125 0,-0.375 -0.15625,-0.734375 -0.40625,-0.96875 C 3.78125,-4.25 4.140625,-4.296875 4.3125,-4.296875 c 0.03125,0 0.078125,0 0.109375,0.015625 C 4.3125,-4.25 4.25,-4.140625 4.25,-4.015625 c 0,0.171875 0.140625,0.28125 0.296875,0.28125 0.09375,0 0.28125,-0.0625 0.28125,-0.296875 0,-0.171875 -0.109375,-0.484375 -0.5,-0.484375 -0.203125,0 -0.640625,0.0625 -1.0625,0.46875 C 2.84375,-4.375 2.4375,-4.40625 2.21875,-4.40625 c -0.9375,0 -1.625,0.6875 -1.625,1.453125 0,0.4375 0.21875,0.8125 0.46875,1.03125 -0.125,0.140625 -0.3125,0.46875 -0.3125,0.828125 0,0.3125 0.140625,0.6875 0.453125,0.890625 -0.609375,0.15625 -0.921875,0.59375 -0.921875,0.984375 0,0.71875 0.984375,1.265625 2.203125,1.265625 1.171875,0 2.203125,-0.5 2.203125,-1.28125 0,-0.34375 -0.125,-0.859375 -0.640625,-1.140625 -0.53125,-0.265625 -1.109375,-0.265625 -1.71875,-0.265625 -0.25,0 -0.671875,0 -0.75,-0.015625 C 1.265625,-0.703125 1.0625,-1 1.0625,-1.328125 Z M 2.5,1.828125 c -1.015625,0 -1.703125,-0.515625 -1.703125,-1.046875 0,-0.453125 0.375,-0.828125 0.8125,-0.84375 h 0.59375 c 0.859375,0 1.96875,0 1.96875,0.84375 0,0.546875 -0.703125,1.046875 -1.671875,1.046875 z m 0,0"
             id="id-c27f3470-16fb-4f5b-a012-f5e55ffed9bf" />
        </symbol>
        <symbol
           overflow="visible"
           id="id-ac01e5bb-9fe1-4753-aa68-991ff538ebd5">
          <path
             style="stroke:none;stroke-width:0"
             d="M 1.765625,-4.40625 0.375,-4.296875 v 0.3125 c 0.640625,0 0.734375,0.0625 0.734375,0.546875 V -0.75 c 0,0.4375 -0.109375,0.4375 -0.78125,0.4375 V 0 C 0.640625,-0.015625 1.1875,-0.03125 1.421875,-0.03125 1.78125,-0.03125 2.125,-0.015625 2.46875,0 v -0.3125 c -0.671875,0 -0.703125,-0.046875 -0.703125,-0.4375 z m 0.03125,-1.734375 c 0,-0.3125 -0.234375,-0.53125 -0.515625,-0.53125 -0.3125,0 -0.53125,0.265625 -0.53125,0.53125 0,0.265625 0.21875,0.53125 0.53125,0.53125 0.28125,0 0.515625,-0.21875 0.515625,-0.53125 z m 0,0"
             id="id-063d8872-a0fd-4afb-814b-5b3a85ce9cfb" />
        </symbol>
        <symbol
           overflow="visible"
           id="id-a74bc86f-b26d-49da-9b37-6640386ace60">
          <path
             style="stroke:none;stroke-width:0"
             d="m 2.078125,-1.9375 c 0.21875,0.046875 1.03125,0.203125 1.03125,0.921875 0,0.5 -0.34375,0.90625 -1.125,0.90625 -0.84375,0 -1.203125,-0.5625 -1.390625,-1.421875 C 0.5625,-1.65625 0.5625,-1.6875 0.453125,-1.6875 c -0.125,0 -0.125,0.0625 -0.125,0.234375 V -0.125 c 0,0.171875 0,0.234375 0.109375,0.234375 0.046875,0 0.0625,-0.015625 0.25,-0.203125 0.015625,-0.015625 0.015625,-0.03125 0.203125,-0.21875 0.4375,0.40625 0.890625,0.421875 1.09375,0.421875 1.140625,0 1.609375,-0.671875 1.609375,-1.390625 0,-0.515625 -0.296875,-0.828125 -0.421875,-0.9375 C 2.84375,-2.546875 2.453125,-2.625 2.03125,-2.703125 1.46875,-2.8125 0.8125,-2.9375 0.8125,-3.515625 c 0,-0.359375 0.25,-0.765625 1.109375,-0.765625 1.09375,0 1.15625,0.90625 1.171875,1.203125 0,0.09375 0.09375,0.09375 0.109375,0.09375 0.140625,0 0.140625,-0.046875 0.140625,-0.234375 v -1.015625 c 0,-0.15625 0,-0.234375 -0.109375,-0.234375 -0.046875,0 -0.078125,0 -0.203125,0.125 -0.03125,0.03125 -0.125,0.125 -0.171875,0.15625 -0.375,-0.28125 -0.78125,-0.28125 -0.9375,-0.28125 -1.21875,0 -1.59375,0.671875 -1.59375,1.234375 0,0.34375 0.15625,0.625 0.421875,0.84375 0.328125,0.25 0.609375,0.3125 1.328125,0.453125 z m 0,0"
             id="id-1afb5ffa-2dbb-4134-901c-7ceaa69b944c" />
        </symbol>
        <symbol
           overflow="visible"
           id="id-8f9de936-7018-452a-af91-5fd55895f216">
          <path
             style="stroke:none;stroke-width:0"
             d="m 1.71875,-3.984375 h 1.4375 v -0.3125 H 1.71875 V -6.125 h -0.25 c 0,0.8125 -0.296875,1.875 -1.28125,1.921875 v 0.21875 h 0.84375 v 2.75 c 0,1.21875 0.9375,1.34375 1.296875,1.34375 0.703125,0 0.984375,-0.703125 0.984375,-1.34375 v -0.5625 h -0.25 V -1.25 c 0,0.734375 -0.296875,1.109375 -0.671875,1.109375 -0.671875,0 -0.671875,-0.90625 -0.671875,-1.078125 z m 0,0"
             id="id-fbb7e52a-6096-4c6c-ab40-2cebe6bd570d" />
        </symbol>
        <symbol
           overflow="visible"
           id="id-1503ee29-1543-4d1b-8537-32c0df7a66ec">
          <path
             style="stroke:none;stroke-width:0"
             d="m 1.171875,-2.171875 c 0,-1.625 0.8125,-2.046875 1.34375,-2.046875 0.09375,0 0.71875,0.015625 1.0625,0.375 -0.40625,0.03125 -0.46875,0.328125 -0.46875,0.453125 0,0.265625 0.1875,0.453125 0.453125,0.453125 0.265625,0 0.46875,-0.15625 0.46875,-0.46875 0,-0.671875 -0.765625,-1.0625 -1.53125,-1.0625 -1.25,0 -2.15625,1.078125 -2.15625,2.3125 0,1.28125 0.984375,2.265625 2.140625,2.265625 1.328125,0 1.65625,-1.203125 1.65625,-1.296875 0,-0.09375 -0.109375,-0.09375 -0.140625,-0.09375 -0.078125,0 -0.109375,0.03125 -0.125,0.09375 -0.28125,0.921875 -0.9375,1.046875 -1.296875,1.046875 -0.53125,0 -1.40625,-0.421875 -1.40625,-2.03125 z m 0,0"
             id="id-9f706cd5-0251-4cce-be32-e840bb95dc9d" />
        </symbol>
        <symbol
           overflow="visible"
           id="id-a0b0e8bb-dc26-4215-80e8-64e0db2704d5">
          <path
             style="stroke:none;stroke-width:0"
             d="M 1.671875,-3.3125 V -4.40625 L 0.28125,-4.296875 v 0.3125 c 0.703125,0 0.78125,0.0625 0.78125,0.5625 V -0.75 c 0,0.4375 -0.109375,0.4375 -0.78125,0.4375 V 0 c 0.390625,-0.015625 0.859375,-0.03125 1.140625,-0.03125 0.390625,0 0.859375,0 1.265625,0.03125 V -0.3125 H 2.46875 c -0.734375,0 -0.75,-0.109375 -0.75,-0.46875 V -2.3125 c 0,-0.984375 0.421875,-1.875 1.171875,-1.875 0.0625,0 0.09375,0 0.109375,0.015625 -0.03125,0 -0.234375,0.125 -0.234375,0.390625 0,0.265625 0.21875,0.421875 0.4375,0.421875 0.171875,0 0.421875,-0.125 0.421875,-0.4375 0,-0.3125 -0.3125,-0.609375 -0.734375,-0.609375 -0.734375,0 -1.09375,0.671875 -1.21875,1.09375 z m 0,0"
             id="id-a1cfbc02-27f6-45ef-a477-e179133c6b11" />
        </symbol>
        <symbol
           overflow="visible"
           id="id-c430d3cd-401a-4633-a01d-9e5bd312c700">
          <path
             style="stroke:none;stroke-width:0"
             d="M 1.109375,-2.515625 C 1.171875,-4 2.015625,-4.25 2.359375,-4.25 c 1.015625,0 1.125,1.34375 1.125,1.734375 z m 0,0.21875 h 2.78125 c 0.21875,0 0.25,0 0.25,-0.21875 0,-0.984375 -0.546875,-1.953125 -1.78125,-1.953125 -1.15625,0 -2.078125,1.03125 -2.078125,2.28125 0,1.328125 1.046875,2.296875 2.1875,2.296875 C 3.6875,0.109375 4.140625,-1 4.140625,-1.1875 4.140625,-1.28125 4.0625,-1.3125 4,-1.3125 c -0.078125,0 -0.109375,0.0625 -0.125,0.140625 -0.34375,1.03125 -1.25,1.03125 -1.34375,1.03125 -0.5,0 -0.890625,-0.296875 -1.125,-0.671875 -0.296875,-0.46875 -0.296875,-1.125 -0.296875,-1.484375 z m 0,0"
             id="id-6d5f3a8f-8850-4e38-8263-a009d1c11e41" />
        </symbol>
        <symbol
           overflow="visible"
           id="id-00fdfde9-c95e-410e-a530-7c7fab01ff8b">
          <path
             style="stroke:none;stroke-width:0"
             d="M 1.09375,-3.421875 V -0.75 c 0,0.4375 -0.109375,0.4375 -0.78125,0.4375 V 0 c 0.359375,-0.015625 0.859375,-0.03125 1.140625,-0.03125 0.25,0 0.765625,0.015625 1.109375,0.03125 v -0.3125 c -0.671875,0 -0.78125,0 -0.78125,-0.4375 V -2.59375 C 1.78125,-3.625 2.5,-4.1875 3.125,-4.1875 c 0.640625,0 0.75,0.53125 0.75,1.109375 V -0.75 c 0,0.4375 -0.109375,0.4375 -0.78125,0.4375 V 0 c 0.34375,-0.015625 0.859375,-0.03125 1.125,-0.03125 0.25,0 0.78125,0.015625 1.109375,0.03125 v -0.3125 c -0.515625,0 -0.765625,0 -0.765625,-0.296875 v -1.90625 c 0,-0.859375 0,-1.15625 -0.3125,-1.515625 -0.140625,-0.171875 -0.46875,-0.375 -1.046875,-0.375 C 2.46875,-4.40625 2,-3.984375 1.71875,-3.359375 V -4.40625 L 0.3125,-4.296875 v 0.3125 c 0.703125,0 0.78125,0.0625 0.78125,0.5625 z m 0,0"
             id="id-4647c564-bda0-4250-bd6c-9539f6daf796" />
        </symbol>
      </g>
    </defs>
    <g
       id="id-2e25644b-3c90-4a84-ac2c-65a29638f1e6"
       transform="translate(-149.04,-127.953)">
      <g
         style="fill:#000000;fill-opacity:1"
         id="id-f668acc7-6a57-4db0-8495-317bb5772e3d">
        <g
           transform="translate(148.712,134.765)"
           id="g3054">
          <path
             style="stroke:none;stroke-width:0"
             d="m 5.796875,-2.578125 h -0.25 c -0.109375,1.015625 -0.25,2.265625 -2,2.265625 h -0.8125 C 2.265625,-0.3125 2.25,-0.375 2.25,-0.703125 v -5.3125 C 2.25,-6.359375 2.25,-6.5 3.1875,-6.5 H 3.515625 V -6.8125 C 3.15625,-6.78125 2.25,-6.78125 1.84375,-6.78125 c -0.390625,0 -1.171875,0 -1.515625,-0.03125 V -6.5 H 0.5625 c 0.765625,0 0.796875,0.109375 0.796875,0.46875 v 5.25 c 0,0.359375 -0.03125,0.46875 -0.796875,0.46875 H 0.328125 V 0 h 5.1875 z m 0,0"
             id="id-6268b01d-92f9-467c-b1e7-5200633b2006" />
        </g>
        <g
           transform="translate(154.939,134.765)"
           id="g3057">
          <path
             style="stroke:none;stroke-width:0"
             d="M 4.6875,-2.140625 C 4.6875,-3.40625 3.703125,-4.46875 2.5,-4.46875 c -1.25,0 -2.21875,1.09375 -2.21875,2.328125 0,1.296875 1.03125,2.25 2.203125,2.25 1.203125,0 2.203125,-0.984375 2.203125,-2.25 z m -2.1875,2 c -0.4375,0 -0.875,-0.203125 -1.140625,-0.671875 -0.25,-0.4375 -0.25,-1.046875 -0.25,-1.40625 0,-0.390625 0,-0.921875 0.234375,-1.359375 C 1.609375,-4.03125 2.078125,-4.25 2.484375,-4.25 c 0.4375,0 0.859375,0.21875 1.125,0.65625 0.265625,0.421875 0.265625,1 0.265625,1.375 0,0.359375 0,0.90625 -0.21875,1.34375 C 3.421875,-0.421875 2.984375,-0.140625 2.5,-0.140625 Z m 0,0"
             id="id-84304e02-1570-4a7f-8d3c-f337fadcfd60" />
        </g>
        <g
           transform="translate(159.92,134.765)"
           id="g3060">
          <path
             style="stroke:none;stroke-width:0"
             d="m 2.21875,-1.71875 c -0.875,0 -0.875,-1 -0.875,-1.21875 0,-0.265625 0.015625,-0.59375 0.15625,-0.84375 0.078125,-0.109375 0.3125,-0.390625 0.71875,-0.390625 0.859375,0 0.859375,0.984375 0.859375,1.21875 0,0.265625 0,0.59375 -0.15625,0.84375 C 2.84375,-2 2.609375,-1.71875 2.21875,-1.71875 Z M 1.0625,-1.328125 c 0,-0.03125 0,-0.265625 0.15625,-0.46875 0.390625,0.28125 0.8125,0.3125 1,0.3125 0.921875,0 1.609375,-0.6875 1.609375,-1.453125 0,-0.375 -0.15625,-0.734375 -0.40625,-0.96875 C 3.78125,-4.25 4.140625,-4.296875 4.3125,-4.296875 c 0.03125,0 0.078125,0 0.109375,0.015625 C 4.3125,-4.25 4.25,-4.140625 4.25,-4.015625 c 0,0.171875 0.140625,0.28125 0.296875,0.28125 0.09375,0 0.28125,-0.0625 0.28125,-0.296875 0,-0.171875 -0.109375,-0.484375 -0.5,-0.484375 -0.203125,0 -0.640625,0.0625 -1.0625,0.46875 C 2.84375,-4.375 2.4375,-4.40625 2.21875,-4.40625 c -0.9375,0 -1.625,0.6875 -1.625,1.453125 0,0.4375 0.21875,0.8125 0.46875,1.03125 -0.125,0.140625 -0.3125,0.46875 -0.3125,0.828125 0,0.3125 0.140625,0.6875 0.453125,0.890625 -0.609375,0.15625 -0.921875,0.59375 -0.921875,0.984375 0,0.71875 0.984375,1.265625 2.203125,1.265625 1.171875,0 2.203125,-0.5 2.203125,-1.28125 0,-0.34375 -0.125,-0.859375 -0.640625,-1.140625 -0.53125,-0.265625 -1.109375,-0.265625 -1.71875,-0.265625 -0.25,0 -0.671875,0 -0.75,-0.015625 C 1.265625,-0.703125 1.0625,-1 1.0625,-1.328125 Z M 2.5,1.828125 c -1.015625,0 -1.703125,-0.515625 -1.703125,-1.046875 0,-0.453125 0.375,-0.828125 0.8125,-0.84375 h 0.59375 c 0.859375,0 1.96875,0 1.96875,0.84375 0,0.546875 -0.703125,1.046875 -1.671875,1.046875 z m 0,0"
             id="id-d94ba72a-c029-4e1b-a097-afcf15d3e72f" />
        </g>
        <g
           transform="translate(164.901,134.765)"
           id="g3063">
          <path
             style="stroke:none;stroke-width:0"
             d="M 1.765625,-4.40625 0.375,-4.296875 v 0.3125 c 0.640625,0 0.734375,0.0625 0.734375,0.546875 V -0.75 c 0,0.4375 -0.109375,0.4375 -0.78125,0.4375 V 0 C 0.640625,-0.015625 1.1875,-0.03125 1.421875,-0.03125 1.78125,-0.03125 2.125,-0.015625 2.46875,0 v -0.3125 c -0.671875,0 -0.703125,-0.046875 -0.703125,-0.4375 z m 0.03125,-1.734375 c 0,-0.3125 -0.234375,-0.53125 -0.515625,-0.53125 -0.3125,0 -0.53125,0.265625 -0.53125,0.53125 0,0.265625 0.21875,0.53125 0.53125,0.53125 0.28125,0 0.515625,-0.21875 0.515625,-0.53125 z m 0,0"
             id="id-b8b5f0f4-5621-4edb-b662-4e8d99886b0a" />
        </g>
        <g
           transform="translate(167.669,134.765)"
           id="g3066">
          <path
             style="stroke:none;stroke-width:0"
             d="m 2.078125,-1.9375 c 0.21875,0.046875 1.03125,0.203125 1.03125,0.921875 0,0.5 -0.34375,0.90625 -1.125,0.90625 -0.84375,0 -1.203125,-0.5625 -1.390625,-1.421875 C 0.5625,-1.65625 0.5625,-1.6875 0.453125,-1.6875 c -0.125,0 -0.125,0.0625 -0.125,0.234375 V -0.125 c 0,0.171875 0,0.234375 0.109375,0.234375 0.046875,0 0.0625,-0.015625 0.25,-0.203125 0.015625,-0.015625 0.015625,-0.03125 0.203125,-0.21875 0.4375,0.40625 0.890625,0.421875 1.09375,0.421875 1.140625,0 1.609375,-0.671875 1.609375,-1.390625 0,-0.515625 -0.296875,-0.828125 -0.421875,-0.9375 C 2.84375,-2.546875 2.453125,-2.625 2.03125,-2.703125 1.46875,-2.8125 0.8125,-2.9375 0.8125,-3.515625 c 0,-0.359375 0.25,-0.765625 1.109375,-0.765625 1.09375,0 1.15625,0.90625 1.171875,1.203125 0,0.09375 0.09375,0.09375 0.109375,0.09375 0.140625,0 0.140625,-0.046875 0.140625,-0.234375 v -1.015625 c 0,-0.15625 0,-0.234375 -0.109375,-0.234375 -0.046875,0 -0.078125,0 -0.203125,0.125 -0.03125,0.03125 -0.125,0.125 -0.171875,0.15625 -0.375,-0.28125 -0.78125,-0.28125 -0.9375,-0.28125 -1.21875,0 -1.59375,0.671875 -1.59375,1.234375 0,0.34375 0.15625,0.625 0.421875,0.84375 0.328125,0.25 0.609375,0.3125 1.328125,0.453125 z m 0,0"
             id="id-47d7cf9f-cbfb-4850-96d2-fd1a44eaeab2" />
        </g>
        <g
           transform="translate(171.598,134.765)"
           id="g3069">
          <path
             style="stroke:none;stroke-width:0"
             d="m 1.71875,-3.984375 h 1.4375 v -0.3125 H 1.71875 V -6.125 h -0.25 c 0,0.8125 -0.296875,1.875 -1.28125,1.921875 v 0.21875 h 0.84375 v 2.75 c 0,1.21875 0.9375,1.34375 1.296875,1.34375 0.703125,0 0.984375,-0.703125 0.984375,-1.34375 v -0.5625 h -0.25 V -1.25 c 0,0.734375 -0.296875,1.109375 -0.671875,1.109375 -0.671875,0 -0.671875,-0.90625 -0.671875,-1.078125 z m 0,0"
             id="id-fbd5f3ab-a596-4249-9c3c-c2fd576faf31" />
        </g>
        <g
           transform="translate(175.473,134.765)"
           id="g3072">
          <path
             style="stroke:none;stroke-width:0"
             d="M 1.765625,-4.40625 0.375,-4.296875 v 0.3125 c 0.640625,0 0.734375,0.0625 0.734375,0.546875 V -0.75 c 0,0.4375 -0.109375,0.4375 -0.78125,0.4375 V 0 C 0.640625,-0.015625 1.1875,-0.03125 1.421875,-0.03125 1.78125,-0.03125 2.125,-0.015625 2.46875,0 v -0.3125 c -0.671875,0 -0.703125,-0.046875 -0.703125,-0.4375 z m 0.03125,-1.734375 c 0,-0.3125 -0.234375,-0.53125 -0.515625,-0.53125 -0.3125,0 -0.53125,0.265625 -0.53125,0.53125 0,0.265625 0.21875,0.53125 0.53125,0.53125 0.28125,0 0.515625,-0.21875 0.515625,-0.53125 z m 0,0"
             id="id-3607a4a9-0038-4f59-8494-7c83768fd68c" />
        </g>
        <g
           transform="translate(178.24,134.765)"
           id="g3075">
          <path
             style="stroke:none;stroke-width:0"
             d="m 1.171875,-2.171875 c 0,-1.625 0.8125,-2.046875 1.34375,-2.046875 0.09375,0 0.71875,0.015625 1.0625,0.375 -0.40625,0.03125 -0.46875,0.328125 -0.46875,0.453125 0,0.265625 0.1875,0.453125 0.453125,0.453125 0.265625,0 0.46875,-0.15625 0.46875,-0.46875 0,-0.671875 -0.765625,-1.0625 -1.53125,-1.0625 -1.25,0 -2.15625,1.078125 -2.15625,2.3125 0,1.28125 0.984375,2.265625 2.140625,2.265625 1.328125,0 1.65625,-1.203125 1.65625,-1.296875 0,-0.09375 -0.109375,-0.09375 -0.140625,-0.09375 -0.078125,0 -0.109375,0.03125 -0.125,0.09375 -0.28125,0.921875 -0.9375,1.046875 -1.296875,1.046875 -0.53125,0 -1.40625,-0.421875 -1.40625,-2.03125 z m 0,0"
             id="id-1a945b04-1a30-4d98-9955-e0c822f18baf" />
        </g>
      </g>
      <g
         style="fill:#000000;fill-opacity:1"
         id="id-028e17b8-ef5e-4d77-9b85-7d567af8af58">
        <g
           transform="translate(185.985,134.765)"
           id="g3079">
          <path
             style="stroke:none;stroke-width:0"
             d="M 1.671875,-3.3125 V -4.40625 L 0.28125,-4.296875 v 0.3125 c 0.703125,0 0.78125,0.0625 0.78125,0.5625 V -0.75 c 0,0.4375 -0.109375,0.4375 -0.78125,0.4375 V 0 c 0.390625,-0.015625 0.859375,-0.03125 1.140625,-0.03125 0.390625,0 0.859375,0 1.265625,0.03125 V -0.3125 H 2.46875 c -0.734375,0 -0.75,-0.109375 -0.75,-0.46875 V -2.3125 c 0,-0.984375 0.421875,-1.875 1.171875,-1.875 0.0625,0 0.09375,0 0.109375,0.015625 -0.03125,0 -0.234375,0.125 -0.234375,0.390625 0,0.265625 0.21875,0.421875 0.4375,0.421875 0.171875,0 0.421875,-0.125 0.421875,-0.4375 0,-0.3125 -0.3125,-0.609375 -0.734375,-0.609375 -0.734375,0 -1.09375,0.671875 -1.21875,1.09375 z m 0,0"
             id="id-0b971a0d-05fc-4680-ab47-3a6e371d0c8b" />
        </g>
        <g
           transform="translate(189.887,134.765)"
           id="g3082">
          <path
             style="stroke:none;stroke-width:0"
             d="M 1.109375,-2.515625 C 1.171875,-4 2.015625,-4.25 2.359375,-4.25 c 1.015625,0 1.125,1.34375 1.125,1.734375 z m 0,0.21875 h 2.78125 c 0.21875,0 0.25,0 0.25,-0.21875 0,-0.984375 -0.546875,-1.953125 -1.78125,-1.953125 -1.15625,0 -2.078125,1.03125 -2.078125,2.28125 0,1.328125 1.046875,2.296875 2.1875,2.296875 C 3.6875,0.109375 4.140625,-1 4.140625,-1.1875 4.140625,-1.28125 4.0625,-1.3125 4,-1.3125 c -0.078125,0 -0.109375,0.0625 -0.125,0.140625 -0.34375,1.03125 -1.25,1.03125 -1.34375,1.03125 -0.5,0 -0.890625,-0.296875 -1.125,-0.671875 -0.296875,-0.46875 -0.296875,-1.125 -0.296875,-1.484375 z m 0,0"
             id="id-e125717e-2984-4c81-b183-c86d73514466" />
        </g>
        <g
           transform="translate(194.315,134.765)"
           id="g3085">
          <path
             style="stroke:none;stroke-width:0"
             d="m 2.21875,-1.71875 c -0.875,0 -0.875,-1 -0.875,-1.21875 0,-0.265625 0.015625,-0.59375 0.15625,-0.84375 0.078125,-0.109375 0.3125,-0.390625 0.71875,-0.390625 0.859375,0 0.859375,0.984375 0.859375,1.21875 0,0.265625 0,0.59375 -0.15625,0.84375 C 2.84375,-2 2.609375,-1.71875 2.21875,-1.71875 Z M 1.0625,-1.328125 c 0,-0.03125 0,-0.265625 0.15625,-0.46875 0.390625,0.28125 0.8125,0.3125 1,0.3125 0.921875,0 1.609375,-0.6875 1.609375,-1.453125 0,-0.375 -0.15625,-0.734375 -0.40625,-0.96875 C 3.78125,-4.25 4.140625,-4.296875 4.3125,-4.296875 c 0.03125,0 0.078125,0 0.109375,0.015625 C 4.3125,-4.25 4.25,-4.140625 4.25,-4.015625 c 0,0.171875 0.140625,0.28125 0.296875,0.28125 0.09375,0 0.28125,-0.0625 0.28125,-0.296875 0,-0.171875 -0.109375,-0.484375 -0.5,-0.484375 -0.203125,0 -0.640625,0.0625 -1.0625,0.46875 C 2.84375,-4.375 2.4375,-4.40625 2.21875,-4.40625 c -0.9375,0 -1.625,0.6875 -1.625,1.453125 0,0.4375 0.21875,0.8125 0.46875,1.03125 -0.125,0.140625 -0.3125,0.46875 -0.3125,0.828125 0,0.3125 0.140625,0.6875 0.453125,0.890625 -0.609375,0.15625 -0.921875,0.59375 -0.921875,0.984375 0,0.71875 0.984375,1.265625 2.203125,1.265625 1.171875,0 2.203125,-0.5 2.203125,-1.28125 0,-0.34375 -0.125,-0.859375 -0.640625,-1.140625 -0.53125,-0.265625 -1.109375,-0.265625 -1.71875,-0.265625 -0.25,0 -0.671875,0 -0.75,-0.015625 C 1.265625,-0.703125 1.0625,-1 1.0625,-1.328125 Z M 2.5,1.828125 c -1.015625,0 -1.703125,-0.515625 -1.703125,-1.046875 0,-0.453125 0.375,-0.828125 0.8125,-0.84375 h 0.59375 c 0.859375,0 1.96875,0 1.96875,0.84375 0,0.546875 -0.703125,1.046875 -1.671875,1.046875 z m 0,0"
             id="id-b0b26a7c-2082-4a8d-9699-f3243ccd3bc6" />
        </g>
        <g
           transform="translate(199.296,134.765)"
           id="g3088">
          <path
             style="stroke:none;stroke-width:0"
             d="M 1.671875,-3.3125 V -4.40625 L 0.28125,-4.296875 v 0.3125 c 0.703125,0 0.78125,0.0625 0.78125,0.5625 V -0.75 c 0,0.4375 -0.109375,0.4375 -0.78125,0.4375 V 0 c 0.390625,-0.015625 0.859375,-0.03125 1.140625,-0.03125 0.390625,0 0.859375,0 1.265625,0.03125 V -0.3125 H 2.46875 c -0.734375,0 -0.75,-0.109375 -0.75,-0.46875 V -2.3125 c 0,-0.984375 0.421875,-1.875 1.171875,-1.875 0.0625,0 0.09375,0 0.109375,0.015625 -0.03125,0 -0.234375,0.125 -0.234375,0.390625 0,0.265625 0.21875,0.421875 0.4375,0.421875 0.171875,0 0.421875,-0.125 0.421875,-0.4375 0,-0.3125 -0.3125,-0.609375 -0.734375,-0.609375 -0.734375,0 -1.09375,0.671875 -1.21875,1.09375 z m 0,0"
             id="id-8d49cce9-c44d-4b1b-b29f-4c701889215e" />
        </g>
        <g
           transform="translate(203.198,134.765)"
           id="g3091">
          <path
             style="stroke:none;stroke-width:0"
             d="M 1.109375,-2.515625 C 1.171875,-4 2.015625,-4.25 2.359375,-4.25 c 1.015625,0 1.125,1.34375 1.125,1.734375 z m 0,0.21875 h 2.78125 c 0.21875,0 0.25,0 0.25,-0.21875 0,-0.984375 -0.546875,-1.953125 -1.78125,-1.953125 -1.15625,0 -2.078125,1.03125 -2.078125,2.28125 0,1.328125 1.046875,2.296875 2.1875,2.296875 C 3.6875,0.109375 4.140625,-1 4.140625,-1.1875 4.140625,-1.28125 4.0625,-1.3125 4,-1.3125 c -0.078125,0 -0.109375,0.0625 -0.125,0.140625 -0.34375,1.03125 -1.25,1.03125 -1.34375,1.03125 -0.5,0 -0.890625,-0.296875 -1.125,-0.671875 -0.296875,-0.46875 -0.296875,-1.125 -0.296875,-1.484375 z m 0,0"
             id="id-88429211-0566-4516-bf36-6b7e8d068238" />
        </g>
        <g
           transform="translate(207.626,134.765)"
           id="g3094">
          <path
             style="stroke:none;stroke-width:0"
             d="m 2.078125,-1.9375 c 0.21875,0.046875 1.03125,0.203125 1.03125,0.921875 0,0.5 -0.34375,0.90625 -1.125,0.90625 -0.84375,0 -1.203125,-0.5625 -1.390625,-1.421875 C 0.5625,-1.65625 0.5625,-1.6875 0.453125,-1.6875 c -0.125,0 -0.125,0.0625 -0.125,0.234375 V -0.125 c 0,0.171875 0,0.234375 0.109375,0.234375 0.046875,0 0.0625,-0.015625 0.25,-0.203125 0.015625,-0.015625 0.015625,-0.03125 0.203125,-0.21875 0.4375,0.40625 0.890625,0.421875 1.09375,0.421875 1.140625,0 1.609375,-0.671875 1.609375,-1.390625 0,-0.515625 -0.296875,-0.828125 -0.421875,-0.9375 C 2.84375,-2.546875 2.453125,-2.625 2.03125,-2.703125 1.46875,-2.8125 0.8125,-2.9375 0.8125,-3.515625 c 0,-0.359375 0.25,-0.765625 1.109375,-0.765625 1.09375,0 1.15625,0.90625 1.171875,1.203125 0,0.09375 0.09375,0.09375 0.109375,0.09375 0.140625,0 0.140625,-0.046875 0.140625,-0.234375 v -1.015625 c 0,-0.15625 0,-0.234375 -0.109375,-0.234375 -0.046875,0 -0.078125,0 -0.203125,0.125 -0.03125,0.03125 -0.125,0.125 -0.171875,0.15625 -0.375,-0.28125 -0.78125,-0.28125 -0.9375,-0.28125 -1.21875,0 -1.59375,0.671875 -1.59375,1.234375 0,0.34375 0.15625,0.625 0.421875,0.84375 0.328125,0.25 0.609375,0.3125 1.328125,0.453125 z m 0,0"
             id="id-d6911ca9-cf59-4a6b-9da6-5b25f2c6e4bb" />
        </g>
        <g
           transform="translate(211.555,134.765)"
           id="g3097">
          <path
             style="stroke:none;stroke-width:0"
             d="m 2.078125,-1.9375 c 0.21875,0.046875 1.03125,0.203125 1.03125,0.921875 0,0.5 -0.34375,0.90625 -1.125,0.90625 -0.84375,0 -1.203125,-0.5625 -1.390625,-1.421875 C 0.5625,-1.65625 0.5625,-1.6875 0.453125,-1.6875 c -0.125,0 -0.125,0.0625 -0.125,0.234375 V -0.125 c 0,0.171875 0,0.234375 0.109375,0.234375 0.046875,0 0.0625,-0.015625 0.25,-0.203125 0.015625,-0.015625 0.015625,-0.03125 0.203125,-0.21875 0.4375,0.40625 0.890625,0.421875 1.09375,0.421875 1.140625,0 1.609375,-0.671875 1.609375,-1.390625 0,-0.515625 -0.296875,-0.828125 -0.421875,-0.9375 C 2.84375,-2.546875 2.453125,-2.625 2.03125,-2.703125 1.46875,-2.8125 0.8125,-2.9375 0.8125,-3.515625 c 0,-0.359375 0.25,-0.765625 1.109375,-0.765625 1.09375,0 1.15625,0.90625 1.171875,1.203125 0,0.09375 0.09375,0.09375 0.109375,0.09375 0.140625,0 0.140625,-0.046875 0.140625,-0.234375 v -1.015625 c 0,-0.15625 0,-0.234375 -0.109375,-0.234375 -0.046875,0 -0.078125,0 -0.203125,0.125 -0.03125,0.03125 -0.125,0.125 -0.171875,0.15625 -0.375,-0.28125 -0.78125,-0.28125 -0.9375,-0.28125 -1.21875,0 -1.59375,0.671875 -1.59375,1.234375 0,0.34375 0.15625,0.625 0.421875,0.84375 0.328125,0.25 0.609375,0.3125 1.328125,0.453125 z m 0,0"
             id="id-4892a199-daa5-49e0-a958-48737a8eac7a" />
        </g>
      </g>
      <g
         style="fill:#000000;fill-opacity:1"
         id="id-8c7aa60f-37a8-4b9b-b337-0e0b33960499">
        <g
           transform="translate(215.494,134.765)"
           id="g3101">
          <path
             style="stroke:none;stroke-width:0"
             d="M 1.765625,-4.40625 0.375,-4.296875 v 0.3125 c 0.640625,0 0.734375,0.0625 0.734375,0.546875 V -0.75 c 0,0.4375 -0.109375,0.4375 -0.78125,0.4375 V 0 C 0.640625,-0.015625 1.1875,-0.03125 1.421875,-0.03125 1.78125,-0.03125 2.125,-0.015625 2.46875,0 v -0.3125 c -0.671875,0 -0.703125,-0.046875 -0.703125,-0.4375 z m 0.03125,-1.734375 c 0,-0.3125 -0.234375,-0.53125 -0.515625,-0.53125 -0.3125,0 -0.53125,0.265625 -0.53125,0.53125 0,0.265625 0.21875,0.53125 0.53125,0.53125 0.28125,0 0.515625,-0.21875 0.515625,-0.53125 z m 0,0"
             id="id-e555bc43-71ab-40a9-8196-a078292dda76" />
        </g>
        <g
           transform="translate(218.262,134.765)"
           id="g3104">
          <path
             style="stroke:none;stroke-width:0"
             d="M 4.6875,-2.140625 C 4.6875,-3.40625 3.703125,-4.46875 2.5,-4.46875 c -1.25,0 -2.21875,1.09375 -2.21875,2.328125 0,1.296875 1.03125,2.25 2.203125,2.25 1.203125,0 2.203125,-0.984375 2.203125,-2.25 z m -2.1875,2 c -0.4375,0 -0.875,-0.203125 -1.140625,-0.671875 -0.25,-0.4375 -0.25,-1.046875 -0.25,-1.40625 0,-0.390625 0,-0.921875 0.234375,-1.359375 C 1.609375,-4.03125 2.078125,-4.25 2.484375,-4.25 c 0.4375,0 0.859375,0.21875 1.125,0.65625 0.265625,0.421875 0.265625,1 0.265625,1.375 0,0.359375 0,0.90625 -0.21875,1.34375 C 3.421875,-0.421875 2.984375,-0.140625 2.5,-0.140625 Z m 0,0"
             id="id-790497a4-80a0-4699-b765-8e0db0177669" />
        </g>
        <g
           transform="translate(223.243,134.765)"
           id="g3107">
          <path
             style="stroke:none;stroke-width:0"
             d="M 1.09375,-3.421875 V -0.75 c 0,0.4375 -0.109375,0.4375 -0.78125,0.4375 V 0 c 0.359375,-0.015625 0.859375,-0.03125 1.140625,-0.03125 0.25,0 0.765625,0.015625 1.109375,0.03125 v -0.3125 c -0.671875,0 -0.78125,0 -0.78125,-0.4375 V -2.59375 C 1.78125,-3.625 2.5,-4.1875 3.125,-4.1875 c 0.640625,0 0.75,0.53125 0.75,1.109375 V -0.75 c 0,0.4375 -0.109375,0.4375 -0.78125,0.4375 V 0 c 0.34375,-0.015625 0.859375,-0.03125 1.125,-0.03125 0.25,0 0.78125,0.015625 1.109375,0.03125 v -0.3125 c -0.515625,0 -0.765625,0 -0.765625,-0.296875 v -1.90625 c 0,-0.859375 0,-1.15625 -0.3125,-1.515625 -0.140625,-0.171875 -0.46875,-0.375 -1.046875,-0.375 C 2.46875,-4.40625 2,-3.984375 1.71875,-3.359375 V -4.40625 L 0.3125,-4.296875 v 0.3125 c 0.703125,0 0.78125,0.0625 0.78125,0.5625 z m 0,0"
             id="id-b2ac0968-d4f3-4876-bc7a-277b14bf65ec" />
        </g>
      </g>
    </g>
  </g>
  <ellipse
     style="opacity:0.339563;mix-blend-mode:screen;fill:#ff00bd;fill-opacity:0.499852;fill-rule:evenodd;stroke:none;stroke-width:2.7;stroke-opacity:1;filter:url(#filter5189)"
     id="path952"
     cx="-191.76138"
     cy="-79.179352"
     rx="40.350346"
     ry="112.7625" />
</svg>
