<?xml version="1.0" encoding="UTF-8" standalone="no"?>
<!-- Created with Inkscape (http://www.inkscape.org/) -->

<svg
   xmlns:dc="http://purl.org/dc/elements/1.1/"
   xmlns:cc="http://creativecommons.org/ns#"
   xmlns:rdf="http://www.w3.org/1999/02/22-rdf-syntax-ns#"
   xmlns:svg="http://www.w3.org/2000/svg"
   xmlns="http://www.w3.org/2000/svg"
   xmlns:sodipodi="http://sodipodi.sourceforge.net/DTD/sodipodi-0.dtd"
   xmlns:inkscape="http://www.inkscape.org/namespaces/inkscape"
   width="210mm"
   height="297mm"
   viewBox="0 0 210 297"
   version="1.1"
   id="svg8"
   inkscape:version="0.92.5 (2060ec1f9f, 2020-04-08)"
   sodipodi:docname="gradient_descent.svg">
  <defs
     id="defs2">
    <marker
       inkscape:isstock="true"
       style="overflow:visible;"
       id="marker5478"
       refX="0.0"
       refY="0.0"
       orient="auto"
       inkscape:stockid="Arrow1Lend">
      <path
         transform="scale(0.8) rotate(180) translate(12.5,0)"
         style="fill-rule:evenodd;stroke:#000000;stroke-width:1pt;stroke-opacity:1;fill:#000000;fill-opacity:1"
         d="M 0.0,0.0 L 5.0,-5.0 L -12.5,0.0 L 5.0,5.0 L 0.0,0.0 z "
         id="path5476" />
    </marker>
    <marker
       inkscape:stockid="Arrow1Lend"
       orient="auto"
       refY="0.0"
       refX="0.0"
       id="marker5333"
       style="overflow:visible;"
       inkscape:isstock="true">
      <path
         id="path5331"
         d="M 0.0,0.0 L 5.0,-5.0 L -12.5,0.0 L 5.0,5.0 L 0.0,0.0 z "
         style="fill-rule:evenodd;stroke:#000000;stroke-width:1pt;stroke-opacity:1;fill:#000000;fill-opacity:1"
         transform="scale(0.8) rotate(180) translate(12.5,0)" />
    </marker>
    <marker
       inkscape:stockid="Arrow1Lend"
       orient="auto"
       refY="0.0"
       refX="0.0"
       id="Arrow1Lend"
       style="overflow:visible;"
       inkscape:isstock="true"
       inkscape:collect="always">
      <path
         id="path5052"
         d="M 0.0,0.0 L 5.0,-5.0 L -12.5,0.0 L 5.0,5.0 L 0.0,0.0 z "
         style="fill-rule:evenodd;stroke:#000000;stroke-width:1pt;stroke-opacity:1;fill:#000000;fill-opacity:1"
         transform="scale(0.8) rotate(180) translate(12.5,0)" />
    </marker>
  </defs>
  <sodipodi:namedview
     id="base"
     pagecolor="#ffffff"
     bordercolor="#666666"
     borderopacity="1.0"
     inkscape:pageopacity="0.0"
     inkscape:pageshadow="2"
     inkscape:zoom="0.75984456"
     inkscape:cx="471.82066"
     inkscape:cy="650.99898"
     inkscape:document-units="mm"
     inkscape:current-layer="layer1"
     showgrid="false"
     inkscape:snap-grids="true"
     inkscape:snap-text-baseline="true"
     inkscape:window-width="1920"
     inkscape:window-height="1016"
     inkscape:window-x="0"
     inkscape:window-y="27"
     inkscape:window-maximized="1" />
  <metadata
     id="metadata5">
    <rdf:RDF>
      <cc:Work
         rdf:about="">
        <dc:format>image/svg+xml</dc:format>
        <dc:type
           rdf:resource="http://purl.org/dc/dcmitype/StillImage" />
        <dc:title></dc:title>
      </cc:Work>
    </rdf:RDF>
  </metadata>
  <g
     inkscape:label="Calque 1"
     inkscape:groupmode="layer"
     id="layer1">
    <ellipse
       id="path3726"
       cx="105.94144"
       cy="43.768127"
       rx="25.941435"
       ry="13.231873"
       style="fill:#aaaaff;stroke-width:0.26458332" />
    <ellipse
       id="path3726-5"
       cx="59.249405"
       cy="80.808365"
       rx="29.249403"
       ry="16.191633"
       style="fill:#00aad4;stroke-width:0.31078398" />
    <ellipse
       id="path3726-5-3"
       cx="157.85658"
       cy="80.460159"
       rx="27.856575"
       ry="16.539841"
       style="fill:#ffaacc;stroke-width:0.30653802" />
    <text
       xml:space="preserve"
       style="font-style:normal;font-weight:normal;font-size:10.58333302px;line-height:1.25;font-family:sans-serif;letter-spacing:0px;word-spacing:0px;fill:#000000;fill-opacity:1;stroke:none;stroke-width:0.26458332"
       x="90.882072"
       y="40.719509"
       id="text4632"><tspan
         sodipodi:role="line"
         id="tspan4630"
         x="90.882072"
         y="50.083279"
         style="stroke-width:0.26458332" /></text>
    <g
       id="g4689"
       transform="matrix(0.79510135,0,0,0.84468904,-195.77441,-16.30577)">
      <g
         word-spacing="normal"
         letter-spacing="normal"
         font-size-adjust="none"
         font-stretch="normal"
         font-weight="normal"
         font-variant="normal"
         font-style="normal"
         stroke-miterlimit="10.433"
         xml:space="preserve"
         transform="matrix(0.3,0,0,-0.3,-52.5,222.75)"
         id="g4687"
         style="font-style:normal;font-variant:normal;font-weight:normal;font-stretch:normal;letter-spacing:normal;word-spacing:normal;text-anchor:start;fill:none;fill-opacity:1;fill-rule:evenodd;stroke:#000000;stroke-linecap:butt;stroke-linejoin:miter;stroke-miterlimit:10.43299961;stroke-dasharray:none;stroke-dashoffset:0;stroke-opacity:1"><path
           id="path4679"
           d="m 1216.9,374.79 v 0.34 l -0.1,0.35 v 0.34 0.33 l -0.1,0.33 -0.1,0.32 -0.1,0.32 -0.1,0.31 -0.1,0.3 -0.2,0.29 -0.1,0.29 -0.2,0.28 -0.2,0.26 -0.2,0.26 -0.2,0.25 -0.2,0.24 -0.2,0.23 -0.3,0.21 -0.2,0.21 -0.3,0.19 -0.3,0.18 -0.2,0.16 -0.3,0.15 -0.3,0.14 -0.3,0.12 -0.4,0.11 -0.3,0.1 -0.3,0.07 -0.4,0.06 -0.3,0.05 -0.4,0.02 -0.4,0.01 c -2.9,0 -4.3,-0.79 -6,-2.09 -2.8,-1.98 -5.5,-6.83 -6.4,-10.61 l -8,-31.64 c 0,-0.19 0.2,-0.5 0.6,-0.5 0.4,0 0.6,0.11 0.6,0.25 l 3.5,13.75 c 1,-2.98 3.2,-4.83 6.8,-4.83 l -0.2,1.1 c -3.8,0 -5.6,2.89 -5.6,6.43 0,0.49 0,1.24 0.2,2.19 l 3.2,12.61 c 1.1,4.28 4.7,12.2 10.7,12.2 2.8,0 4.6,-1.54 4.6,-4.53 v 0 c 0,-3.5 -1.9,-7.08 -4.5,-8.62 -1.3,0.5 -2.3,0.59 -3.8,0.59 -1.1,0 -3.9,0.05 -3.9,-1.59 0,-1.39 2.6,-1.24 3.5,-1.24 l 0.1,1.1 c -0.7,0 -1.7,-0.07 -2.2,0.18 0.1,0.5 1.9,0.41 2.5,0.41 1,0 1.5,0 2.1,-0.25 v 0 c -0.6,-0.25 -1.2,-0.34 -2.4,-0.34 l -0.1,-1.1 c 1.8,0 2.6,0.05 4.1,0.64 1.8,-1.79 2.1,-3.34 2.2,-5.62 0.1,-2.89 -1.1,-6.63 -2.5,-8.58 -2,-2.69 -5.3,-4.48 -8.2,-4.48 l 0.2,-1.1 c 3.6,0 7.4,1.75 9.6,3.94 2.4,2.3 4,5.48 4,9.17 0,3.58 -1.8,6.17 -3.6,7.42 2.9,1.64 5.7,4.74 5.7,8.32 z"
           inkscape:connector-curvature="0"
           style="fill:#000000;stroke-width:0" /><path
           id="path4681"
           d="m 1227.3,362.02 h 0.1 v 0.01 0 0.01 0 0.01 0 0.01 0.01 0 0.02 0.02 0.02 0.02 0.02 0.02 0.02 0.02 0.03 0.04 0.05 0.02 l 0.1,0.03 v 0.02 0.02 0.02 0.02 0.01 0.02 0.01 0 0.01 0.01 0 0.01 0 0.01 0 0 0 0.01 c 0,0.18 -0.2,0.5 -0.6,0.5 -0.7,0 -3.6,-0.28 -4.4,-0.36 -0.3,-0.03 -0.8,-0.07 -0.8,-0.8 0,-0.48 0.5,-0.48 0.9,-0.48 1.7,0 1.7,-0.25 1.7,-0.54 0,-0.23 -0.1,-0.45 -0.2,-0.76 l -4.9,-19.72 c -0.1,-0.62 -0.1,-0.69 -0.1,-0.77 0,-0.51 0.4,-1.1 1.1,-1.1 1,0 1.4,0.68 1.6,1.45 0.1,0.14 1.6,6.28 1.8,6.76 2.4,-0.25 4.4,-1.04 4.4,-2.86 0,-0.17 0,-0.34 -0.1,-0.68 -0.1,-0.53 -0.1,-0.71 -0.1,-1.1 0,-2.47 2,-3.57 3.7,-3.57 3.4,0 4.4,5.29 4.4,5.32 0,0.46 -0.4,0.46 -0.5,0.46 -0.5,0 -0.6,-0.18 -0.7,-0.85 -0.5,-1.5 -1.4,-3.97 -3.1,-3.97 -0.9,0 -1.2,0.88 -1.2,1.82 0,0.59 0,0.65 0.2,1.56 0,0.11 0.2,0.7 0.2,1.09 0,3.1 -4.2,3.58 -5.7,3.69 1,0.63 2.3,1.78 2.9,2.3 1.8,1.67 3.5,3.31 5.5,3.31 0.4,0 0.8,-0.11 1.1,-0.45 -1.5,-0.25 -1.8,-1.43 -1.8,-1.96 0,-0.76 0.6,-1.28 1.4,-1.28 1,0 2,0.77 2,2.22 0,1.16 -0.8,2.44 -2.7,2.44 -2,0 -3.8,-1.42 -5.6,-3.06 -1.4,-1.39 -2.6,-2.47 -4,-3.07 z"
           inkscape:connector-curvature="0"
           style="fill:#000000;stroke-width:0" /><path
           id="path4683"
           d="m 1264.3,346.75 h 0.1 v 0 l 0.1,0.01 h 0.2 v 0 l 0.1,0.01 v 0 l 0.1,0.01 v 0.01 l 0.1,0.01 0.1,0.01 v 0.01 l 0.1,0.02 v 0.02 l 0.1,0.02 v 0.02 l 0.1,0.03 v 0.03 l 0.1,0.03 v 0.04 0.04 l 0.1,0.02 v 0.02 0.02 0.03 0.02 0.03 0.02 l 0.1,0.03 v 0.03 0.03 0.03 0.03 0.04 0.03 0.03 0.04 0.04 0.04 c 0,0.86 -0.8,0.86 -1.4,0.86 h -20.7 c -0.6,0 -1.4,0 -1.4,-0.83 0,-0.88 0.8,-0.88 1.4,-0.88 z"
           inkscape:connector-curvature="0"
           style="fill:#000000;stroke-width:0" /><path
           id="path4685"
           d="m 1281.2,361.04 -0.1,0.04 v 0.04 0.04 0.04 0.04 0.04 0.04 0.03 0.03 0.04 0.03 0.03 0.03 0.03 0.02 0.03 0.03 0.02 0.05 0.04 0.04 0.03 l -0.1,0.03 v 0.03 0.02 0.03 l -0.1,0.02 v 0.01 0.02 l -0.1,0.01 v 0.01 0.01 h -0.1 v 0.01 0 0 l -0.1,0.01 v 0 0 h -0.1 v 0 0.01 h -0.1 v 0 0 h -0.1 v 0 h -0.1 v 0 h -0.1 v 0 c -2.2,-2.2 -5.4,-2.23 -6.8,-2.23 v -1.25 c 0.8,0 3.1,0 5,0.96 v -17.76 c 0,-1.16 0,-1.61 -3.5,-1.61 h -1.3 v -1.25 c 0.7,0.03 4.9,0.14 6.2,0.14 1.1,0 5.5,-0.11 6.3,-0.14 v 1.25 h -1.4 c -3.4,0 -3.4,0.45 -3.4,1.61 z"
           inkscape:connector-curvature="0"
           style="fill:#000000;stroke-width:0" /></g>    </g>
    <g
       id="g4973"
       transform="matrix(0.56108338,0,0,0.58419471,-20.099456,8.4260749)">
      <g
         word-spacing="normal"
         letter-spacing="normal"
         font-size-adjust="none"
         font-stretch="normal"
         font-weight="normal"
         font-variant="normal"
         font-style="normal"
         stroke-miterlimit="10.433"
         xml:space="preserve"
         transform="matrix(0.3,0,0,-0.3,-52.5,222.75)"
         id="g4971"
         style="font-style:normal;font-variant:normal;font-weight:normal;font-stretch:normal;letter-spacing:normal;word-spacing:normal;text-anchor:start;fill:none;fill-opacity:1;fill-rule:evenodd;stroke:#000000;stroke-linecap:butt;stroke-linejoin:miter;stroke-miterlimit:10.43299961;stroke-dasharray:none;stroke-dashoffset:0;stroke-opacity:1"><path
           id="path4933"
           d="m 1132.5,351.9 v 0.01 l 0.1,0.02 v 0.01 0.02 0.02 0.02 0.02 0.02 0.02 0.02 0.02 l 0.1,0.03 v 0.05 0.04 0.05 0.05 0.03 l 0.1,0.02 v 0.03 0.02 0.02 0.02 0.03 0.02 0.02 0.02 0.02 0.02 c 0,0.36 -0.1,0.4 -1.2,0.4 h -34.4 c -1.1,0 -1.2,-0.04 -1.2,-0.4 0,-0.19 0.2,-0.55 0.3,-0.69 l 16.8,-33.64 c 0.3,-0.64 0.5,-0.94 1.3,-0.94 0.9,0 1,0.3 1.4,0.94 l 0.1,3.75 -13.7,27.39 h 27.4 l -13.7,-27.39 -0.1,-3.75 z"
           inkscape:connector-curvature="0"
           style="fill:#000000;stroke-width:0" /><path
           id="path4935"
           d="m 1124.3,306.16 v 0.28 l -0.1,0.28 v 0.27 l -0.1,0.26 v 0.25 l -0.1,0.24 -0.1,0.24 -0.1,0.23 -0.1,0.22 -0.1,0.21 -0.2,0.2 -0.1,0.2 -0.2,0.18 -0.2,0.18 -0.2,0.17 -0.1,0.16 -0.2,0.15 -0.3,0.14 -0.2,0.14 -0.2,0.12 -0.2,0.11 -0.3,0.11 -0.2,0.09 -0.3,0.09 -0.2,0.07 -0.3,0.07 -0.3,0.06 -0.2,0.04 -0.3,0.04 -0.3,0.02 -0.3,0.02 h -0.3 v -0.96 c 2,0 3.4,-1.13 3.4,-3.25 v 0 c 0,-1.85 -0.9,-4.57 -3,-5.79 -0.7,0.22 -1.3,0.46 -3.3,0.46 -1.2,0 -2.9,-0.07 -2.9,-1.33 0,-0.86 1,-1 2.8,-1 l 0.1,0.94 c -0.6,0 -1.4,0.03 -1.7,0.17 0.4,0.2 1.4,0.25 1.7,0.25 0.5,0 1.3,-0.05 1.8,-0.17 v 0 c -0.6,-0.11 -0.8,-0.25 -1.8,-0.25 l -0.1,-0.94 c 1.2,0 2.3,0.17 3.3,0.48 1.1,-0.73 1.6,-2.15 1.6,-3.68 0,-5.07 -3.4,-8.83 -7.7,-8.83 -2.7,0 -4.6,1.64 -4.6,4.39 0,0.36 0.1,0.7 0.1,1.01 l 2.3,9.27 c 0.9,3.31 3.9,8.27 8,8.27 V 311 c -4.7,0 -8.3,-5.43 -9.1,-8.95 l -5.5,-21.95 c -0.1,-0.24 0.3,-0.42 0.5,-0.42 0.3,0 0.6,0.04 0.7,0.25 l 2.3,9.29 c 0.7,-1.59 2.4,-3.09 5.2,-3.09 4.9,0 10.4,3.51 10.4,8.84 0,2.07 -0.9,4.16 -2.7,5.3 1.7,1.08 4,3.08 4,5.89 z"
           inkscape:connector-curvature="0"
           style="fill:#000000;stroke-width:0" /><path
           id="path4937"
           d="m 1171.4,383.43 v -0.05 l -0.1,-0.04 v -0.05 -0.05 -0.05 -0.05 -0.05 -0.06 l -0.1,-0.11 v -0.11 -0.11 l -0.1,-0.11 v -0.05 -0.05 -0.05 -0.05 -0.05 -0.05 -0.04 -0.04 -0.04 l -0.1,-0.03 v -0.03 -0.03 -0.03 -0.02 -0.01 0 -0.01 -0.01 c 0,-0.76 0.7,-1.11 1.2,-1.11 0.6,0 1.2,0.46 1.4,0.77 0.2,0.31 0.4,1.42 0.6,2.16 0.2,0.65 0.6,2.26 0.8,3.14 0.2,0.76 0.4,1.53 0.6,2.33 0.3,1.43 0.4,1.7 1.4,3.14 1,1.39 2.6,3.2 5.2,3.2 2.1,0 2.1,-1.78 2.1,-2.44 0,-2.09 -1.5,-5.95 -2.1,-7.42 -0.3,-0.98 -0.5,-1.3 -0.5,-1.89 0,-1.84 1.6,-2.99 3.3,-2.99 3.5,0 5,4.8 5,5.33 0,0.46 -0.4,0.46 -0.5,0.46 -0.5,0 -0.5,-0.21 -0.7,-0.6 -0.8,-2.78 -2.3,-4.22 -3.7,-4.22 -0.7,0 -0.8,0.49 -0.8,1.22 0,0.8 0.1,1.25 0.8,2.83 0.4,1.08 1.8,4.77 1.8,6.72 0,3.39 -2.7,3.97 -4.5,3.97 -2.9,0 -4.9,-1.77 -5.9,-3.16 -0.3,2.39 -2.3,3.16 -3.7,3.16 -1.5,0 -2.3,-1.08 -2.8,-1.88 -0.8,-1.28 -1.2,-3.28 -1.2,-3.45 0,-0.45 0.4,-0.45 0.6,-0.45 0.4,0 0.5,0.11 0.7,1.04 0.5,2.07 1.2,3.77 2.6,3.77 0.9,0 1.1,-0.77 1.1,-1.7 0,-0.68 -0.3,-1.96 -0.6,-2.89 -0.2,-0.96 -0.5,-2.38 -0.7,-3.15 z"
           inkscape:connector-curvature="0"
           style="fill:#000000;stroke-width:0" /><path
           id="path4939"
           d="m 1206.6,296.49 6,15.94 h -1.3 c -1.9,-5.18 -7.2,-8.57 -12.9,-10.07 -1.1,-0.25 -6,-1.54 -15.5,-1.54 h -30.1 l 25.4,29.75 c 0.4,0.39 0.5,0.54 0.5,0.79 0,0.1 0,0.25 -0.4,0.75 l -23.2,31.74 h 27.3 c 6.7,0 11.2,-0.71 11.6,-0.8 2.8,-0.41 7.1,-1.25 11,-3.73 1.3,-0.8 4.6,-3.05 6.3,-7.08 h 1.3 l -6,14 h -58.9 c -1.2,0 -1.2,-0.05 -1.4,-0.35 0,-0.15 0,-1.09 0,-1.65 l 26.3,-36.06 -25.8,-30.25 c -0.5,-0.6 -0.5,-0.85 -0.5,-0.89 0,-0.55 0.5,-0.55 1.4,-0.55 z"
           inkscape:connector-curvature="0"
           style="fill:#000000;stroke-width:0" /><path
           id="path4941"
           d="m 1158.5,281.94 v 0.05 0.06 0.05 0.06 0.05 0.06 l -0.1,0.05 v 0.06 0.06 0.05 l -0.1,0.06 v 0.05 0.06 l -0.1,0.05 v 0.05 0.05 l -0.1,0.05 v 0.05 l -0.1,0.04 v 0.04 l -0.1,0.04 v 0.04 l -0.1,0.04 -0.1,0.03 v 0.03 l -0.1,0.02 -0.1,0.03 -0.1,0.02 v 0.01 l -0.1,0.01 -0.1,0.01 h -0.1 c -0.9,0 -2,-0.91 -2,-1.92 0,-0.6 0.5,-1.33 1.4,-1.33 1,0 2,0.98 2,1.92 z"
           inkscape:connector-curvature="0"
           style="fill:#000000;stroke-width:0" /><path
           id="path4943"
           d="m 1151.4,264.24 v -0.09 l -0.1,-0.08 v -0.17 -0.08 l -0.1,-0.09 v -0.09 -0.08 -0.09 l -0.1,-0.09 v -0.1 -0.09 -0.05 -0.05 -0.05 -0.06 -0.05 -0.05 -0.05 -0.06 c 0,-1.64 1.4,-2.95 3.3,-2.95 3.5,0 5,4.79 5,5.32 0,0.46 -0.5,0.46 -0.6,0.46 -0.4,0 -0.5,-0.21 -0.6,-0.6 -0.8,-2.78 -2.4,-4.21 -3.7,-4.21 -0.7,0 -0.9,0.45 -0.9,1.21 0,0.8 0.3,1.47 0.6,2.24 0.3,0.94 0.7,1.87 1.1,2.78 0.3,0.84 1.6,4.02 1.7,4.44 0.1,0.34 0.2,0.76 0.2,1.11 0,1.64 -1.4,2.95 -3.3,2.95 -3.5,0 -5.1,-4.73 -5.1,-5.33 0,-0.45 0.5,-0.45 0.6,-0.45 0.5,0 0.5,0.17 0.7,0.56 0.9,3 2.4,4.25 3.7,4.25 0.5,0 0.9,-0.28 0.9,-1.22 0,-0.79 -0.3,-1.33 -1.1,-3.48 z"
           inkscape:connector-curvature="0"
           style="fill:#000000;stroke-width:0" /><path
           id="path4945"
           d="m 1188,271.86 v 0 h 0.1 0.1 v 0 l 0.1,0.01 h 0.1 v 0.01 h 0.1 v 0.01 l 0.1,0.01 v 0.01 l 0.1,0.01 0.1,0.02 v 0.01 l 0.1,0.02 v 0.02 l 0.1,0.03 v 0.03 0.03 l 0.1,0.03 v 0.04 l 0.1,0.04 v 0.02 0.02 0.03 0.02 0.03 0.02 l 0.1,0.03 v 0.03 0.03 0.03 0.03 0.03 0.04 0.03 0.04 0.04 0.04 0.04 c 0,0.84 -0.8,0.84 -1.3,0.84 h -23 c -0.5,0 -1.3,0 -1.3,-0.84 0,-0.88 0.8,-0.88 1.3,-0.88 z"
           inkscape:connector-curvature="0"
           style="fill:#000000;stroke-width:0" /><path
           id="path4947"
           d="m 1188,264.21 h 0.1 v 0 h 0.1 v 0 h 0.1 v 0 l 0.1,0.01 v 0 l 0.1,0.01 v 0 l 0.1,0.01 v 0.01 l 0.1,0.01 v 0.02 l 0.1,0.01 v 0.02 l 0.1,0.02 v 0.02 l 0.1,0.03 v 0.03 l 0.1,0.03 v 0.04 0.03 l 0.1,0.02 v 0.03 0.02 0.02 0.03 0.02 l 0.1,0.03 v 0.02 0.03 0.03 0.03 0.03 0.04 0.03 0.03 0.04 0.04 0.04 c 0,0.87 -0.8,0.87 -1.3,0.87 h -23 c -0.5,0 -1.3,0 -1.3,-0.87 0,-0.83 0.8,-0.83 1.3,-0.83 z"
           inkscape:connector-curvature="0"
           style="fill:#000000;stroke-width:0" /><path
           id="path4949"
           d="m 1203.5,282.32 v 0.04 0.04 0.04 0.04 0.04 0.04 0.04 0.03 0.04 0.03 0.03 0.03 0.03 0.03 0.03 0.02 0.03 0.02 0.02 0.03 0.04 l -0.1,0.04 v 0.03 0.03 0.03 0.03 l -0.1,0.02 v 0.02 0.02 l -0.1,0.01 v 0.01 l -0.1,0.01 v 0.01 0 0.01 h -0.1 v 0 0.01 0 h -0.1 v 0 0.01 h -0.1 v 0 0 h -0.1 v 0 h -0.1 v 0 0 h -0.1 v 0 c -2.3,-2.2 -5.4,-2.23 -6.9,-2.23 v -1.25 c 0.9,0 3.2,0 5.1,0.97 v -17.77 c 0,-1.16 0,-1.61 -3.5,-1.61 h -1.3 v -1.25 c 0.6,0.03 4.9,0.14 6.2,0.14 1.1,0 5.5,-0.11 6.2,-0.14 v 1.25 h -1.3 c -3.5,0 -3.5,0.45 -3.5,1.61 z"
           inkscape:connector-curvature="0"
           style="fill:#000000;stroke-width:0" /><path
           id="path4951"
           d="m 1236.6,352.99 v 0 0.01 0.01 0.01 0.01 0.01 0.02 0.02 0.02 0.02 0.02 0.02 0.03 0.02 0.02 0.03 l -0.1,0.02 v 0.03 0.02 0.03 0.02 l -0.1,0.01 v 0.01 0.01 0.01 0.01 0.01 0.01 l -0.1,0.01 v 0.01 0.01 0.01 0 l -0.1,0.01 v 0.01 0 0.01 0 l -0.1,0.01 v 0 0 l -0.1,0.01 v 0 0 0 c -1.2,0 -4.8,-0.41 -6.1,-0.5 -0.4,-0.05 -1,-0.09 -1,-1.05 0,-0.54 0.5,-0.54 1.3,-0.54 2.4,0 2.4,-0.46 2.4,-0.85 l -0.1,-1 -6.3,-24.9 c -0.1,-0.55 -0.3,-0.91 -0.3,-1.71 0,-2.83 2.3,-4.58 4.6,-4.58 1.6,0 2.9,1 3.7,2.79 0.9,1.9 1.5,4.79 1.5,4.89 0,0.5 -0.4,0.5 -0.6,0.5 -0.5,0 -0.5,-0.21 -0.7,-0.91 -0.8,-3.23 -1.8,-6.17 -3.8,-6.17 -1.5,0 -1.5,1.59 -1.5,2.29 0,1.19 0.1,1.44 0.3,2.4 z"
           inkscape:connector-curvature="0"
           style="fill:#000000;stroke-width:0" /><path
           id="path4953"
           d="m 1256.1,307.01 v 0.02 0.03 0.01 0.02 0.01 0.02 0.02 0.01 l -0.1,0.02 v 0.02 0.02 0.03 0.02 0.03 0.03 l -0.1,0.03 v 0.04 0.03 0.02 l -0.1,0.02 v 0.02 0.02 0.02 0.03 l -0.1,0.02 v 0.02 0.03 0.03 0.02 l -0.1,0.03 v 0.03 0.03 l -0.1,0.03 v 0.03 0.03 0.03 l -0.1,0.04 v 0.03 0.04 l -0.1,0.03 v 0.04 l -0.1,0.04 c -6.2,6.28 -7.8,15.69 -7.8,23.31 0,8.68 1.9,17.35 8,23.57 0.7,0.61 0.7,0.7 0.7,0.86 0,0.34 -0.2,0.48 -0.5,0.48 -0.5,0 -5,-3.37 -7.9,-9.7 -2.6,-5.49 -3.2,-11.02 -3.2,-15.21 0,-3.89 0.6,-9.9 3.3,-15.54 3,-6.13 7.3,-9.36 7.8,-9.36 0.3,0 0.5,0.14 0.5,0.5 z"
           inkscape:connector-curvature="0"
           style="fill:#000000;stroke-width:0" /><path
           id="path4955"
           d="m 1283.1,337.95 v 0.03 0.03 l 0.1,0.06 v 0.05 0.06 0.05 0.05 0.04 0.05 0.04 l 0.1,0.04 v 0.03 0.04 0.03 0.03 0.03 0.03 0.03 0.03 0.06 0.05 0.05 0.05 0.06 0.02 0.03 0.03 0.04 c 0,0.9 -0.7,1.34 -1.4,1.34 -0.5,0 -1.3,-0.3 -1.8,-1.05 -0.1,-0.25 -0.5,-1.78 -0.7,-2.68 -0.3,-1.3 -0.7,-2.65 -1,-3.99 l -2.2,-8.97 c -0.2,-0.75 -2.3,-4.23 -5.6,-4.23 -2.6,0 -3.1,2.19 -3.1,4.03 0,2.3 0.8,5.39 2.5,9.76 0.8,2.05 1,2.6 1,3.6 0,2.23 -1.6,4.08 -4.1,4.08 -4.7,0 -6.6,-7.22 -6.6,-7.68 0,-0.5 0.5,-0.5 0.7,-0.5 0.5,0 0.5,0.11 0.8,0.91 1.3,4.69 3.3,6.17 5,6.17 0.4,0 1.2,0 1.2,-1.59 0,-1.25 -0.5,-2.53 -0.8,-3.49 -2,-5.28 -2.9,-8.12 -2.9,-10.46 0,-4.43 3.1,-5.93 6.1,-5.93 1.9,0 3.6,0.85 5,2.24 -0.6,-2.58 -1.2,-5.03 -3.2,-7.67 -1.3,-1.69 -3.2,-3.14 -5.5,-3.14 -0.7,0 -3,0.15 -3.8,2.09 0.8,0 1.4,0 2.1,0.61 0.5,0.44 1,1.09 1,2.03 0,1.55 -1.3,1.75 -1.8,1.75 -1.1,0 -2.8,-0.8 -2.8,-3.23 0,-2.5 2.2,-4.35 5.3,-4.35 5.1,0 10.2,4.55 11.6,10.17 z"
           inkscape:connector-curvature="0"
           style="fill:#000000;stroke-width:0" /><path
           id="path4957"
           d="m 1294.7,333.3 v 0.05 0.06 0.05 0.06 0.05 0.06 l -0.1,0.05 v 0.06 0.06 0.05 l -0.1,0.06 v 0.05 0.06 l -0.1,0.05 v 0.05 0.05 l -0.1,0.05 v 0.05 l -0.1,0.04 v 0.04 l -0.1,0.04 v 0.04 l -0.1,0.04 -0.1,0.03 v 0.03 l -0.1,0.02 -0.1,0.03 -0.1,0.01 v 0.02 l -0.1,0.01 -0.1,0.01 h -0.1 c -1,0 -2,-0.91 -2,-1.92 0,-0.6 0.5,-1.33 1.4,-1.33 1,0 2,0.98 2,1.92 z"
           inkscape:connector-curvature="0"
           style="fill:#000000;stroke-width:0" /><path
           id="path4959"
           d="m 1287.6,315.6 v -0.09 l -0.1,-0.08 v -0.17 -0.08 l -0.1,-0.09 v -0.09 -0.08 -0.09 l -0.1,-0.09 v -0.1 -0.09 -0.05 -0.05 -0.05 -0.06 -0.05 -0.05 -0.06 -0.05 c 0,-1.64 1.4,-2.95 3.3,-2.95 3.5,0 5,4.79 5,5.32 0,0.46 -0.4,0.46 -0.6,0.46 -0.4,0 -0.5,-0.21 -0.6,-0.6 -0.8,-2.78 -2.4,-4.22 -3.7,-4.22 -0.7,0 -0.9,0.46 -0.9,1.22 0,0.8 0.3,1.47 0.6,2.24 0.3,0.94 0.7,1.87 1.1,2.78 0.3,0.84 1.6,4.01 1.7,4.44 0.1,0.34 0.2,0.76 0.2,1.11 0,1.64 -1.4,2.95 -3.3,2.95 -3.5,0 -5.1,-4.74 -5.1,-5.33 0,-0.45 0.5,-0.45 0.6,-0.45 0.5,0 0.6,0.17 0.7,0.56 0.9,3 2.4,4.25 3.7,4.25 0.5,0 0.8,-0.28 0.8,-1.22 0,-0.8 -0.1,-1.33 -1,-3.48 z"
           inkscape:connector-curvature="0"
           style="fill:#000000;stroke-width:0" /><path
           id="path4961"
           d="m 1310.1,319.01 v 0.3 0.3 l -0.1,0.29 v 0.28 0.27 l -0.1,0.27 v 0.25 l -0.1,0.25 v 0.23 l -0.1,0.23 v 0.22 l -0.1,0.21 -0.1,0.2 -0.1,0.2 -0.1,0.18 -0.1,0.17 -0.1,0.16 -0.1,0.16 -0.1,0.14 -0.1,0.14 -0.2,0.12 -0.1,0.11 -0.2,0.11 -0.1,0.09 -0.1,0.08 -0.2,0.07 -0.2,0.06 -0.1,0.05 -0.2,0.04 -0.2,0.03 -0.1,0.02 h -0.2 c -1.7,0 -2.7,-1.25 -2.7,-2.64 0,-1.34 1,-2.64 2.7,-2.64 0.6,0 1.2,0.2 1.7,0.64 0.2,0.11 0.2,0.16 0.3,0.16 0,0 0.1,-0.05 0.1,-0.75 0,-3.69 -1.8,-6.67 -3.4,-8.31 -0.6,-0.55 -0.6,-0.66 -0.6,-0.8 0,-0.36 0.3,-0.55 0.5,-0.55 0.6,0 4.6,3.83 4.6,9.66 z"
           inkscape:connector-curvature="0"
           style="fill:#000000;stroke-width:0" /><path
           id="path4963"
           d="m 1338.7,334.01 v 0.13 0.15 l 0.1,0.16 v 0.18 l 0.1,0.2 v 0.2 l 0.1,0.22 0.1,0.22 0.1,0.24 v 0.24 l 0.1,0.24 0.1,0.25 0.2,0.25 0.1,0.25 0.1,0.25 0.1,0.24 0.2,0.24 0.1,0.24 0.2,0.23 0.2,0.23 0.2,0.21 0.2,0.2 0.2,0.19 0.2,0.18 0.2,0.16 0.3,0.14 0.1,0.07 0.1,0.06 0.2,0.05 0.1,0.05 0.1,0.05 0.2,0.04 0.1,0.03 0.2,0.03 0.1,0.02 0.2,0.02 0.1,0.01 h 0.2 c 0.3,0 1.5,0 2.5,-0.64 -1.4,-0.25 -2.4,-1.5 -2.4,-2.69 0,-0.79 0.5,-1.75 1.9,-1.75 1.1,0 2.7,0.9 2.7,2.9 0,2.59 -3,3.28 -4.6,3.28 -2.9,0 -4.7,-2.64 -5.3,-3.78 -1.2,3.28 -3.9,3.78 -5.3,3.78 -5.2,0 -8.1,-6.43 -8.1,-7.68 0,-0.5 0.5,-0.5 0.6,-0.5 0.4,0 0.6,0.11 0.7,0.55 1.7,5.28 4.9,6.53 6.6,6.53 1,0 2.7,-0.43 2.7,-3.33 0,-1.54 -0.8,-4.89 -2.7,-11.85 -0.8,-3.1 -2.5,-5.19 -4.7,-5.19 -0.3,0 -1.4,0 -2.5,0.65 1.3,0.24 2.4,1.29 2.4,2.69 0,1.35 -1.1,1.74 -1.9,1.74 -1.5,0 -2.7,-1.3 -2.7,-2.89 0,-2.29 2.5,-3.29 4.7,-3.29 3.3,0 5,3.49 5.2,3.79 0.6,-1.85 2.4,-3.79 5.4,-3.79 5.1,0 8,6.43 8,7.68 0,0.5 -0.5,0.5 -0.7,0.5 -0.4,0 -0.5,-0.21 -0.6,-0.55 -1.6,-5.33 -5,-6.53 -6.6,-6.53 -2,0 -2.8,1.59 -2.8,3.29 0,1.1 0.3,2.19 0.9,4.38 z"
           inkscape:connector-curvature="0"
           style="fill:#000000;stroke-width:0" /><path
           id="path4965"
           d="m 1361.8,333.3 v 0.05 0.06 0.05 0.06 l -0.1,0.05 v 0.06 0.05 0.06 0.06 0.05 l -0.1,0.06 v 0.05 0.06 l -0.1,0.05 v 0.05 l -0.1,0.05 v 0.05 0.05 l -0.1,0.04 v 0.04 l -0.1,0.04 -0.1,0.04 v 0.04 l -0.1,0.03 -0.1,0.03 v 0.02 l -0.1,0.03 -0.1,0.01 -0.1,0.02 -0.1,0.01 v 0.01 h -0.1 c -1,0 -2,-0.91 -2,-1.92 0,-0.6 0.5,-1.33 1.4,-1.33 1,0 2,0.98 2,1.92 z"
           inkscape:connector-curvature="0"
           style="fill:#000000;stroke-width:0" /><path
           id="path4967"
           d="m 1354.7,315.6 -0.1,-0.17 v -0.17 l -0.1,-0.08 v -0.09 -0.09 -0.08 l -0.1,-0.09 v -0.09 -0.1 -0.09 -0.1 -0.05 -0.06 -0.05 -0.05 -0.06 -0.05 c 0,-1.64 1.4,-2.95 3.3,-2.95 3.4,0 5,4.79 5,5.32 0,0.46 -0.5,0.46 -0.6,0.46 -0.5,0 -0.5,-0.21 -0.7,-0.6 -0.7,-2.78 -2.3,-4.22 -3.6,-4.22 -0.7,0 -0.9,0.46 -0.9,1.22 0,0.8 0.2,1.47 0.5,2.24 0.4,0.94 0.8,1.87 1.2,2.78 0.3,0.84 1.5,4.01 1.7,4.44 0.1,0.34 0.2,0.76 0.2,1.11 0,1.64 -1.4,2.95 -3.3,2.95 -3.5,0 -5.1,-4.74 -5.1,-5.33 0,-0.45 0.5,-0.45 0.6,-0.45 0.5,0 0.5,0.17 0.6,0.56 0.9,3 2.5,4.25 3.8,4.25 0.5,0 0.8,-0.28 0.8,-1.22 0,-0.8 -0.2,-1.33 -1,-3.48 z"
           inkscape:connector-curvature="0"
           style="fill:#000000;stroke-width:0" /><path
           id="path4969"
           d="m 1381.6,331.41 -0.1,0.37 v 0.39 0.39 0.41 0.84 l -0.1,0.88 -0.1,0.92 -0.1,0.95 -0.1,0.98 -0.2,1 -0.2,1.02 -0.2,1.04 -0.3,1.05 -0.3,1.06 -0.3,1.06 -0.4,1.07 -0.2,0.53 -0.2,0.53 -0.3,0.53 -0.2,0.53 c -3,6.13 -7.3,9.36 -7.8,9.36 -0.3,0 -0.5,-0.19 -0.5,-0.48 0,-0.16 0,-0.25 0.9,-1.16 4.9,-4.92 7.8,-12.84 7.8,-23.27 0,-8.51 -1.9,-17.28 -8.1,-23.56 -0.6,-0.59 -0.6,-0.7 -0.6,-0.84 0,-0.3 0.2,-0.5 0.5,-0.5 0.5,0 5,3.39 7.9,9.72 2.6,5.47 3.2,11 3.2,15.18 z"
           inkscape:connector-curvature="0"
           style="fill:#000000;stroke-width:0" /></g>    </g>
    <g
       id="g5036"
       transform="translate(-213.79921,-72.775301)">
      <g
         word-spacing="normal"
         letter-spacing="normal"
         font-size-adjust="none"
         font-stretch="normal"
         font-weight="normal"
         font-variant="normal"
         font-style="normal"
         stroke-miterlimit="10.433"
         xml:space="preserve"
         transform="matrix(0.3,0,0,-0.3,-52.5,222.75)"
         id="content"
         style="font-style:normal;font-variant:normal;font-weight:normal;font-stretch:normal;letter-spacing:normal;word-spacing:normal;text-anchor:start;fill:none;fill-opacity:1;fill-rule:evenodd;stroke:#000000;stroke-linecap:butt;stroke-linejoin:miter;stroke-miterlimit:10.43299961;stroke-dasharray:none;stroke-dashoffset:0;stroke-opacity:1"><path
           id="path5033"
           d="m 1247.9,358.21 v 0.36 0.35 0.35 l -0.1,0.34 v 0.66 l -0.1,0.62 -0.1,0.6 -0.2,0.56 -0.1,0.54 -0.2,0.51 -0.2,0.49 -0.2,0.46 -0.2,0.43 -0.3,0.4 -0.2,0.38 -0.3,0.36 -0.3,0.33 -0.3,0.31 -0.3,0.29 -0.3,0.26 -0.3,0.24 -0.4,0.22 -0.3,0.2 -0.4,0.18 -0.3,0.16 -0.4,0.14 -0.3,0.13 -0.4,0.1 -0.4,0.09 -0.3,0.07 -0.4,0.05 -0.3,0.04 -0.4,0.02 -0.3,0.01 -0.1,-1.1 c 4.9,0 4.9,-6.53 4.9,-10.4 0,-1.85 0,-4.74 0.1,-5.58 v 0 c -4.3,-3.84 -8.2,-4.39 -10.2,-4.39 -3,0 -4.4,2.25 -4.4,5.44 0,2.43 1.3,7.81 2.9,10.36 2.3,3.64 5,4.57 6.7,4.57 l 0.1,1.1 c -6.8,0 -13.4,-7.13 -13.4,-14.14 0,-4.64 3,-8.43 8,-8.43 3.2,0 6.8,1.15 10.6,4.19 0.6,-2.64 2.2,-4.19 4.5,-4.19 2.6,0 4.2,2.74 4.2,3.54 0,0.36 -0.3,0.5 -0.6,0.5 -0.4,0 -0.5,-0.14 -0.7,-0.5 -0.9,-2.44 -2.7,-2.44 -2.8,-2.44 -1.5,0 -1.5,3.89 -1.5,5.08 0,1.04 0,1.15 0.5,1.75 4.7,5.87 5.7,11.65 5.7,11.7 0,0.11 0,0.5 -0.6,0.5 -0.5,0 -0.5,-0.14 -0.7,-1.05 -0.9,-3.14 -2.6,-6.92 -4.9,-9.86 z"
           inkscape:connector-curvature="0"
           style="fill:#000000;stroke-width:0" /></g>    </g>
    <path
       style="fill:none;stroke:#000000;stroke-width:0.24773096px;stroke-linecap:butt;stroke-linejoin:miter;stroke-opacity:1;marker-end:url(#marker5478)"
       d="m 88.414079,80.775168 h 17.813491 l 0.69857,52.951872"
       id="path5043"
       inkscape:connector-curvature="0" />
    <path
       style="fill:none;stroke:#000000;stroke-width:0.265;stroke-linecap:butt;stroke-linejoin:miter;stroke-opacity:1;stroke-miterlimit:4;stroke-dasharray:none;marker-mid:url(#marker5333);marker-end:url(#Arrow1Lend)"
       d="m 125.70279,53.60317 12.88367,13.928288"
       id="path5045"
       inkscape:connector-curvature="0" />
    <path
       style="fill:none;stroke:#000000;stroke-width:0.26458332px;stroke-linecap:butt;stroke-linejoin:miter;stroke-opacity:1"
       d="m 106.20319,80.763331 22.63347,0.348205"
       id="path5047"
       inkscape:connector-curvature="0" />
    <ellipse
       id="path3726-5-5"
       cx="107.58234"
       cy="149.70837"
       rx="29.249403"
       ry="16.191633"
       style="fill:#00aad4;stroke-width:0.31078401" />
    <g
       id="g5462"
       transform="translate(-211.6404,33.06038)">
      <g
         word-spacing="normal"
         letter-spacing="normal"
         font-size-adjust="none"
         font-stretch="normal"
         font-weight="normal"
         font-variant="normal"
         font-style="normal"
         stroke-miterlimit="10.433"
         xml:space="preserve"
         transform="matrix(0.3,0,0,-0.3,-52.5,222.75)"
         id="g5460"
         style="font-style:normal;font-variant:normal;font-weight:normal;font-stretch:normal;letter-spacing:normal;word-spacing:normal;text-anchor:start;fill:none;fill-opacity:1;fill-rule:evenodd;stroke:#000000;stroke-linecap:butt;stroke-linejoin:miter;stroke-miterlimit:10.43299961;stroke-dasharray:none;stroke-dashoffset:0;stroke-opacity:1"><path
           id="path5456"
           d="m 1242.4,374.79 v 0.34 0.35 0.34 l -0.1,0.33 -0.1,0.33 v 0.32 l -0.1,0.32 -0.1,0.31 -0.2,0.3 -0.1,0.29 -0.2,0.29 -0.1,0.28 -0.2,0.26 -0.2,0.26 -0.2,0.25 -0.2,0.24 -0.3,0.23 -0.2,0.21 -0.2,0.21 -0.3,0.19 -0.3,0.18 -0.3,0.16 -0.3,0.15 -0.3,0.14 -0.3,0.12 -0.3,0.11 -0.3,0.1 -0.4,0.07 -0.3,0.06 -0.4,0.05 -0.3,0.02 -0.4,0.01 c -2.9,0 -4.3,-0.79 -6.1,-2.09 -2.7,-1.98 -5.4,-6.83 -6.4,-10.61 l -7.9,-31.64 c -0.1,-0.19 0.2,-0.5 0.6,-0.5 0.4,0 0.5,0.11 0.6,0.25 l 3.5,13.75 c 0.9,-2.98 3.1,-4.83 6.8,-4.83 l -0.2,1.1 c -3.8,0 -5.7,2.89 -5.7,6.43 0,0.49 0,1.24 0.3,2.19 l 3.2,12.61 c 1.1,4.28 4.7,12.2 10.6,12.2 2.9,0 4.7,-1.54 4.7,-4.53 v 0 c 0,-3.5 -1.9,-7.08 -4.5,-8.62 -1.4,0.5 -2.4,0.59 -3.9,0.59 -1,0 -3.8,0.05 -3.8,-1.59 0,-1.39 2.5,-1.24 3.4,-1.24 l 0.2,1.1 c -0.7,0 -1.7,-0.07 -2.2,0.18 0.1,0.5 1.9,0.41 2.4,0.41 1.1,0 1.5,0 2.2,-0.25 v 0 c -0.7,-0.25 -1.2,-0.34 -2.4,-0.34 l -0.2,-1.1 c 1.9,0 2.6,0.05 4.1,0.64 1.9,-1.79 2.2,-3.34 2.2,-5.62 0.1,-2.89 -1.1,-6.63 -2.5,-8.58 -1.9,-2.69 -5.3,-4.48 -8.1,-4.48 l 0.2,-1.1 c 3.6,0 7.3,1.75 9.6,3.94 2.4,2.3 4,5.48 4,9.17 0,3.58 -1.9,6.17 -3.7,7.42 2.9,1.64 5.7,4.74 5.7,8.32 z"
           inkscape:connector-curvature="0"
           style="fill:#000000;stroke-width:0" /><path
           id="path5458"
           d="m 1252.9,362.02 v 0 0.01 0 0.01 0 0.01 0 0.01 0.01 0 0.02 0.02 0.02 l 0.1,0.02 v 0.02 0.02 0.02 0.02 0.03 0.04 0.05 0.02 0.03 0.02 0.02 0.02 0.02 0.01 0.02 0.01 0 0.01 0.01 0 0.01 0 0.01 0 0 0 l 0.1,0.01 c 0,0.18 -0.2,0.5 -0.6,0.5 -0.7,0 -3.6,-0.28 -4.5,-0.36 -0.2,-0.03 -0.7,-0.07 -0.7,-0.8 0,-0.48 0.5,-0.48 0.9,-0.48 1.6,0 1.6,-0.25 1.6,-0.54 0,-0.23 0,-0.45 -0.1,-0.76 l -4.9,-19.72 c -0.2,-0.62 -0.2,-0.69 -0.2,-0.77 0,-0.51 0.4,-1.1 1.2,-1.1 0.9,0 1.4,0.68 1.6,1.45 0.1,0.14 1.6,6.28 1.7,6.76 2.5,-0.25 4.5,-1.04 4.5,-2.86 0,-0.17 0,-0.34 -0.1,-0.68 -0.1,-0.53 -0.1,-0.71 -0.1,-1.1 0,-2.47 2,-3.57 3.7,-3.57 3.3,0 4.4,5.29 4.4,5.32 0,0.46 -0.5,0.46 -0.6,0.46 -0.5,0 -0.5,-0.18 -0.7,-0.85 -0.4,-1.5 -1.3,-3.97 -3,-3.97 -1,0 -1.3,0.88 -1.3,1.82 0,0.59 0,0.65 0.2,1.56 0.1,0.11 0.2,0.7 0.2,1.09 0,3.1 -4.2,3.58 -5.6,3.69 1,0.63 2.3,1.78 2.9,2.3 1.7,1.67 3.5,3.31 5.4,3.31 0.4,0 0.9,-0.11 1.2,-0.45 -1.5,-0.25 -1.8,-1.43 -1.8,-1.96 0,-0.76 0.6,-1.28 1.4,-1.28 0.9,0 2,0.77 2,2.22 0,1.16 -0.9,2.44 -2.7,2.44 -2,0 -3.8,-1.42 -5.6,-3.06 -1.5,-1.39 -2.6,-2.47 -4.1,-3.07 z"
           inkscape:connector-curvature="0"
           style="fill:#000000;stroke-width:0" /></g>    </g>
    <g
       id="g5758"
       transform="translate(-212.5899,-38.312001)">
      <g
         word-spacing="normal"
         letter-spacing="normal"
         font-size-adjust="none"
         font-stretch="normal"
         font-weight="normal"
         font-variant="normal"
         font-style="normal"
         stroke-miterlimit="10.433"
         xml:space="preserve"
         transform="matrix(0.3,0,0,-0.3,-52.5,222.75)"
         id="g5756"
         style="font-style:normal;font-variant:normal;font-weight:normal;font-stretch:normal;letter-spacing:normal;word-spacing:normal;text-anchor:start;fill:none;fill-opacity:1;fill-rule:evenodd;stroke:#000000;stroke-linecap:butt;stroke-linejoin:miter;stroke-miterlimit:10.43299961;stroke-dasharray:none;stroke-dashoffset:0;stroke-opacity:1"><path
           id="path5754"
           d="m 1253.6,357.89 0.1,0.01 h 0.2 0.2 v 0.01 h 0.1 l 0.1,0.01 0.1,0.01 v 0.01 l 0.1,0.01 0.1,0.01 0.1,0.02 V 358 l 0.1,0.02 v 0.02 l 0.1,0.03 0.1,0.03 v 0.04 l 0.1,0.04 v 0.04 0.05 l 0.1,0.05 v 0.02 0.03 0.03 l 0.1,0.03 v 0.03 0.04 0.03 0.03 0.04 0.04 0.04 0.04 0.04 0.04 0.05 0.04 c 0,1 -0.9,1 -1.7,1 h -27 c -0.8,0 -1.7,0 -1.7,-1 0,-1 0.9,-1 1.7,-1 z"
           inkscape:connector-curvature="0"
           style="fill:#000000;stroke-width:0" /></g>    </g>
    <g
       id="g5824"
       transform="translate(-182.80877,-59.195221)">
      <g
         word-spacing="normal"
         letter-spacing="normal"
         font-size-adjust="none"
         font-stretch="normal"
         font-weight="normal"
         font-variant="normal"
         font-style="normal"
         stroke-miterlimit="10.433"
         xml:space="preserve"
         transform="matrix(0.3,0,0,-0.3,-52.5,222.75)"
         id="g5822"
         style="font-style:normal;font-variant:normal;font-weight:normal;font-stretch:normal;letter-spacing:normal;word-spacing:normal;text-anchor:start;fill:none;fill-opacity:1;fill-rule:evenodd;stroke:#000000;stroke-linecap:butt;stroke-linejoin:miter;stroke-miterlimit:10.43299961;stroke-dasharray:none;stroke-dashoffset:0;stroke-opacity:1"><path
           id="path5820"
           d="m 1240.1,360.29 -9.9,9.92 c -0.6,0.59 -0.7,0.7 -1.1,0.7 -0.5,0 -1,-0.45 -1,-1 0,-0.36 0.1,-0.45 0.6,-1 l 10,-10.02 -10,-10.01 c -0.5,-0.55 -0.6,-0.64 -0.6,-1 0,-0.55 0.5,-0.99 1,-0.99 0.4,0 0.5,0.1 1.1,0.69 l 9.9,9.92 10.3,-10.31 c 0.1,-0.05 0.5,-0.3 0.8,-0.3 0.6,0 1,0.44 1,0.99 0,0.11 0,0.31 -0.2,0.56 -0.1,0.1 -8,7.92 -10.5,10.45 l 9.2,9.13 c 0.2,0.3 1,0.94 1.2,1.23 0,0.11 0.3,0.3 0.3,0.66 0,0.55 -0.4,1 -1,1 -0.4,0 -0.6,-0.2 -1.2,-0.75 z"
           inkscape:connector-curvature="0"
           style="fill:#000000;stroke-width:0" /></g>    </g>
  </g>
</svg>
